<?xml version="1.0" encoding="UTF-8" standalone="no"?>
<!-- Created with Inkscape (http://www.inkscape.org/) -->

<svg
   version="1.1"
   id="svg1"
   width="323.71655"
   height="200.00002"
   viewBox="0 0 323.71656 200.00002"
   sodipodi:docname="graphics board.svg"
   inkscape:version="1.4.4 (dcaf3e7d9e, 2026-05-05)"
   xml:space="preserve"
   inkscape:export-filename="../wendys-kitchen/wendys-kitchen/public/wendys-kitchen-logo.svg"
   inkscape:export-xdpi="96"
   inkscape:export-ydpi="96"
   xmlns:inkscape="http://www.inkscape.org/namespaces/inkscape"
   xmlns:sodipodi="http://sodipodi.sourceforge.net/DTD/sodipodi-0.dtd"
   xmlns="http://www.w3.org/2000/svg"
   xmlns:svg="http://www.w3.org/2000/svg"><defs
     id="defs1" /><sodipodi:namedview
     id="namedview1"
     pagecolor="#505050"
     bordercolor="#eeeeee"
     borderopacity="1"
     inkscape:showpageshadow="0"
     inkscape:pageopacity="0"
     inkscape:pagecheckerboard="0"
     inkscape:deskcolor="#505050"
     inkscape:zoom="0.58732058"
     inkscape:cx="-1989.5438"
     inkscape:cy="1568.9898"
     inkscape:window-width="1366"
     inkscape:window-height="736"
     inkscape:window-x="0"
     inkscape:window-y="0"
     inkscape:window-maximized="1"
     inkscape:current-layer="g21-7"
     showgrid="false"><inkscape:page
       x="0"
       y="0"
       width="323.71655"
       height="200.00002"
       id="page2"
       margin="0"
       bleed="0" /></sodipodi:namedview><g
     inkscape:groupmode="layer"
     inkscape:label="Image"
     id="g1"
     transform="translate(-3439.648,487.72182)"><path
       style="fill:#000000;stroke-width:1.11864"
       d="m 3579.1207,-288.18489 c -35.4655,-4.25897 -66.443,-15.30357 -94.3427,-33.6365 -18.8378,-12.37849 -36.5568,-28.26502 -40.9466,-36.71208 -14.3731,-27.658 10.508,-59.53304 40.8819,-52.37342 6.5048,1.53328 12.0413,4.71043 18.3691,10.54109 3.0047,2.76862 5.463,5.2741 5.463,5.56772 0,0.29364 -3.429,4.36547 -7.62,9.04851 -7.8098,8.72672 -9.2363,10.94605 -8.4559,13.15606 0.8817,2.49727 3.3382,4.50723 5.5087,4.50723 2.3012,0 4.19,-1.70973 14.9005,-13.4876 l 5.3888,-5.92596 6.4701,4.30186 c 3.5585,2.36602 10.1209,6.10433 14.583,8.30737 4.4623,2.20303 8.1132,4.25544 8.1132,4.5609 0,0.30546 -1.6691,5.22911 -3.7091,10.94147 -2.0399,5.71234 -3.7143,11.32856 -3.7208,12.48048 -0.013,2.49845 3.0429,5.46723 5.6296,5.46723 3.3069,0 5.0888,-2.76537 9.0486,-14.04303 2.086,-5.94128 3.8709,-10.90727 3.9666,-11.03552 0.096,-0.12825 4.0685,0.74698 8.8285,1.94497 4.7601,1.19799 12.1627,2.5421 16.4505,2.98692 4.2876,0.44482 8.8489,0.96156 10.1362,1.14832 l 2.3405,0.33956 v 12.60283 c 0,12.42057 0.026,12.62838 1.7677,14.37048 2.3302,2.33022 6.0438,2.3844 8.1718,0.11923 1.4486,-1.54209 1.5613,-2.48275 1.7458,-14.58314 l 0.1972,-12.93474 6.1585,-0.46976 c 7.4793,-0.57051 16.1523,-2.15903 24.7757,-4.53777 3.5469,-0.97841 6.5287,-1.6992 6.6261,-1.60174 0.097,0.0974 1.9807,5.3512 4.185,11.67502 4.2275,12.129 5.4593,14.01837 9.1383,14.01837 2.6005,0 5.6487,-2.85135 5.6487,-5.28385 0,-0.9617 -1.8054,-6.84069 -4.012,-13.06441 -2.2066,-6.22374 -3.908,-11.41061 -3.7808,-11.52639 0.1272,-0.11579 3.7027,-2.00079 7.9456,-4.18889 4.2429,-2.18812 10.5622,-5.8651 14.043,-8.17108 3.4808,-2.30599 6.5567,-4.19782 6.8355,-4.20406 0.2786,-0.007 3.7868,3.71546 7.7957,8.27044 9.2807,10.54473 10.385,11.52249 13.0149,11.52249 2.8758,0 5.6884,-2.83918 5.6884,-5.74222 0,-2.19003 -4.5642,-8.00127 -14.3358,-18.25273 l -3.308,-3.47051 5.4011,-4.99873 c 16.2244,-15.01552 37.9302,-15.28544 52.5621,-0.65361 8.925,8.92504 12.5748,21.5879 9.7165,33.71189 -1.9271,8.17445 -4.3544,12.10865 -12.5603,20.35792 -25.486,25.62047 -60.9699,45.20472 -97.9397,54.05479 -17.1227,4.09897 -25.8649,5.077 -47.5592,5.32072 -10.8924,0.12236 -22.2349,-0.0693 -25.2055,-0.42613 z m 9.1424,-84.25527 c -19.1954,-2.00737 -40.7571,-9.5715 -56.4663,-19.80919 -7.5566,-4.92451 -10.7246,-7.41476 -19.2905,-15.16337 -3.5648,-3.22464 -8.4737,-7.14597 -10.9088,-8.71405 -11.6219,-7.48419 -28.6334,-9.34996 -41.4136,-4.54219 l -3.352,1.26094 -4.2502,-4.04554 c -13.3121,-12.67106 -16.4948,-28.91131 -8.7538,-44.66946 4.255,-8.66168 14.2288,-16.55343 23.6686,-18.72751 9.3931,-2.1633 20.9479,-0.20152 28.3404,4.81165 3.7785,2.56227 12.7085,10.6253 12.7085,11.47458 0,0.22123 -3.3988,4.21782 -7.553,8.88131 -4.1541,4.6635 -7.8729,9.32059 -8.264,10.3491 -1.4909,3.92171 2.2557,8.19352 6.3899,7.2855 1.5854,-0.34822 4.3016,-2.91727 10.2915,-9.73419 4.4757,-5.09362 8.3953,-9.28432 8.7102,-9.31267 0.315,-0.0284 3.0695,1.63491 6.1213,3.69614 4.9027,3.31141 19.5926,11.30883 22.4521,12.22331 1.2104,0.38711 1.3748,-0.23963 -3.8924,14.84233 -3.0086,8.61451 -3.2488,9.76293 -2.4086,11.51592 1.8849,3.93281 7.3958,4.64715 9.6235,1.24744 0.5824,-0.88892 2.4797,-5.62915 4.2163,-10.53385 1.7365,-4.9047 3.4918,-9.78254 3.9007,-10.83965 l 0.7433,-1.922 3.4609,1.06241 c 6.5711,2.01726 16.4531,3.87338 25.2454,4.74186 l 8.8219,0.8714 v 12.13443 c 0,12.22291 0.3567,14.26782 2.8183,16.15773 1.8928,1.45334 5.0193,1.07268 6.9366,-0.84456 1.7451,-1.74516 1.7676,-1.93178 1.7676,-14.66415 v -12.8965 l 6.3014,-0.50985 c 7.9723,-0.64505 15.9843,-2.11053 24.5169,-4.48443 3.6811,-1.02417 6.8211,-1.73396 6.9777,-1.57732 0.1566,0.15666 2.0839,5.28858 4.2828,11.40429 4.1215,11.46303 5.2066,13.27948 8.3981,14.0574 2.4593,0.59946 6.4154,-2.58006 6.4154,-5.15603 0,-0.98079 -1.8315,-6.95218 -4.07,-13.26975 -2.2385,-6.31757 -3.9398,-11.56261 -3.7808,-11.65564 0.159,-0.0931 3.6919,-1.8541 7.8508,-3.91347 4.1589,-2.05938 10.5373,-5.70517 14.1741,-8.10175 3.6368,-2.39659 6.749,-4.35743 6.916,-4.35743 0.167,0 4.1063,4.2328 8.7541,9.40624 4.6477,5.17343 9.2406,9.76634 10.2067,10.20646 2.4051,1.09587 6.5432,-0.85745 7.1785,-3.38854 0.809,-3.22333 -0.2105,-4.91043 -8.7203,-14.43208 l -8.3598,-9.35371 5.3446,-5.0705 c 8.4606,-8.02669 15.8563,-11.08224 26.9037,-11.1154 14.108,-0.0424 26.3428,7.71358 32.4482,20.56968 6.8235,14.36851 4.1358,29.50333 -7.4643,42.03258 -5.3376,5.76505 -4.755,5.62036 -12.8454,3.19051 -3.0404,-0.91316 -6.7753,-1.30644 -12.6027,-1.3271 -7.2326,-0.0256 -9.0852,0.23398 -14.6233,2.04918 -7.3142,2.39737 -13.5858,6.17208 -19.224,11.57052 -19.8088,18.96635 -43.8169,31.39718 -69.007,35.73013 -9.7532,1.67766 -26.4854,2.31569 -35.6352,1.35884 z"
       id="path10" /></g></svg>
