<?xml version="1.0" encoding="UTF-8" standalone="no"?>
<!-- Created with Inkscape (http://www.inkscape.org/) -->

<svg
   version="1.1"
   id="svg1"
   width="210.4812"
   height="200"
   viewBox="0 0 210.4812 200"
   sodipodi:docname="graphics board.svg"
   inkscape:version="1.4.4 (dcaf3e7d9e, 2026-05-05)"
   xml:space="preserve"
   inkscape:export-filename="../wendys-kitchen/wendys-kitchen/public/wendys-kitchen-logo.svg"
   inkscape:export-xdpi="96"
   inkscape:export-ydpi="96"
   xmlns:inkscape="http://www.inkscape.org/namespaces/inkscape"
   xmlns:sodipodi="http://sodipodi.sourceforge.net/DTD/sodipodi-0.dtd"
   xmlns="http://www.w3.org/2000/svg"
   xmlns:svg="http://www.w3.org/2000/svg"><defs
     id="defs1" /><sodipodi:namedview
     id="namedview1"
     pagecolor="#505050"
     bordercolor="#eeeeee"
     borderopacity="1"
     inkscape:showpageshadow="0"
     inkscape:pageopacity="0"
     inkscape:pagecheckerboard="0"
     inkscape:deskcolor="#505050"
     inkscape:zoom="0.58732058"
     inkscape:cx="-1989.5438"
     inkscape:cy="1568.9898"
     inkscape:window-width="1366"
     inkscape:window-height="736"
     inkscape:window-x="0"
     inkscape:window-y="0"
     inkscape:window-maximized="1"
     inkscape:current-layer="g21-7"
     showgrid="false"><inkscape:page
       x="0"
       y="0"
       width="210.4812"
       height="200"
       id="page2"
       margin="0"
       bleed="0" /></sodipodi:namedview><g
     inkscape:groupmode="layer"
     inkscape:label="Image"
     id="g1"
     transform="translate(-3479.4893,178.60473)"><path
       style="fill:#000000;stroke-width:0.997905"
       d="m 3518.9158,21.057985 c -19.5198,-2.569409 -37.9059,-17.8573926 -39.325,-32.698336 -0.9315,-9.742527 4.6106,-23.37786 14.2136,-34.969933 4.2051,-5.076309 7.6886,-7.910541 14.6122,-11.888825 9.4009,-5.401781 14.2338,-8.479341 20.2647,-12.904097 14.5101,-10.646051 18.6755,-12.807129 28.9074,-14.997484 5.7657,-1.234287 15.7786,-1.146343 21.1404,0.185683 3.9459,0.980315 10.278,3.608369 10.2558,4.256636 -0.011,0.175243 -1.5184,1.164971 -3.3609,2.199398 -8.9714,5.036737 -19.8344,13.345809 -23.9646,18.330363 -2.8581,3.449236 -6.6726,11.066134 -7.7743,15.523617 -0.5761,2.331699 -0.8073,5.142132 -0.7923,9.638981 0.018,5.49222 0.1902,6.905687 1.2758,10.48884 2.2649,7.47385 5.5037,12.650524 11.2638,18.0027318 7.1522,6.6455955 14.7857,9.8412056 24.774,10.3711135 9.045,0.4798663 18.3066,-2.41464835 25.7596,-8.0505989 5.9199,-4.4767337 15.6644,-17.6677634 22.9086,-31.0112664 l 2.278,-4.19583 2.4765,2.660686 c 7.6011,8.166215 10.4356,22.100909 6.9523,34.1777205 -1.5473,5.3645292 -4.324,9.8166753 -9.1036,14.5962855 -4.9599,4.959818 -9.1042,7.481489 -15.5495,9.461059 l -3.5136,1.079145 -50.3108,0.07459 c -27.6709,0.04102 -51.6955,-0.107691 -53.3881,-0.330482 z m 7.5804,-12.1491893 c 0.7558,-0.7559269 1.3743,-1.7185786 1.3743,-2.1392224 0,-1.1621585 -1.2799,-3.3884787 -2.1369,-3.7173944 -4.0304,-1.5465742 -7.2427,3.0662348 -4.2321,6.076918 1.5529,1.5527931 3.2986,1.4757941 4.9947,-0.2203012 z m -12.7656,-4.096228 c 0.536,-0.6813922 0.9745,-1.7556057 0.9745,-2.3871405 0,-1.4030809 -2.3809,-3.8970719 -3.7203,-3.8970719 -1.7482,0 -5.6931,-1.7753405 -7.8229,-3.5205135 -3.3337,-2.7316966 -4.5819,-5.3093428 -4.8263,-9.9670418 -0.1845,-3.514435 -0.3327,-4.034373 -1.3859,-4.862798 -1.6805,-1.321946 -3.2438,-1.159556 -4.9138,0.510459 -1.4355,1.435512 -1.4375,1.44555 -1.1975,5.654998 0.1991,3.492501 0.4976,4.7394187 1.7376,7.2583199 3.3161,6.73571459 11.444,12.3523685 17.9807,12.4251843 1.8318,0.020404 2.3623,-0.1825484 3.1739,-1.2143955 z m 73.0849,-10.0580956 c -3.4084,-0.6136 -8.1679,-2.4163224 -11.2926,-4.2771651 -3.5775,-2.130461 -8.4607,-7.08387 -10.6366,-10.789589 -2.961,-5.042896 -4.226,-9.684343 -4.2836,-15.718634 -0.06,-6.25562 0.5491,-8.958031 3.325,-14.758286 1.6894,-3.529878 2.787,-5.085436 5.4795,-7.766059 6.5729,-6.543838 17.0622,-13.666493 28.5095,-19.359103 15.808,-7.861107 27.1233,-11.483589 35.8705,-11.483589 3.3011,0 4.3206,0.197562 6.421,1.244182 2.0945,1.043731 2.6767,1.630823 3.614,3.644006 3.866,8.302497 -2.5767,29.842437 -15.3441,51.300015 -12.1166,20.363816 -21.1639,27.6132367 -35.2239,28.22423 -2.2129,0.096157 -5.1103,-0.020843 -6.4387,-0.2600079 z m -75.4017,-66.2098341 c 0,-3.114154 1.5646,-8.97564 3.3156,-12.421422 2.0779,-4.088922 5.0894,-7.871137 10.7632,-13.517193 17.9424,-17.854803 41.0812,-31.970473 52.4066,-31.970473 3.0618,0 6.2357,1.53426 7.6849,3.71501 1.9305,2.90491 2.2404,4.92946 2.1664,14.15236 -0.057,7.16689 -0.2642,9.60934 -1.1754,13.870732 -0.8363,3.911393 -1.2777,5.150663 -1.8111,5.084033 -0.3878,-0.04843 -2.8211,-0.558853 -5.4072,-1.134224 -3.6237,-0.806236 -6.2654,-1.051865 -11.5197,-1.071146 -7.655,-0.02809 -11.8229,0.571224 -18.3376,2.636831 -7.645,2.423986 -12.2727,5.032487 -22.8045,12.854625 -4.9169,3.651913 -14.5014,10.076625 -15.0324,10.076625 -0.1369,0 -0.2488,-1.024091 -0.2488,-2.275758 z m 139.2534,-16.264004 c -0.876,-2.422336 -4.4688,-6.159499 -6.8805,-7.157016 l -2.0972,-0.867404 7.9773,-8.024654 c 9.2495,-9.30428 9.359,-9.5411 6.1199,-13.2209 -2.3262,-2.64279 -3.0049,-4.66588 -2.7498,-8.19563 0.5849,-8.08378 10.2455,-12.11363 16.5608,-6.90805 2.6318,2.16931 3.5628,4.41892 3.5628,8.60863 0,3.15979 0.1316,3.69819 1.1541,4.72067 1.012,1.0119 1.5769,1.15539 4.5845,1.16444 4.1585,0.0125 6.6557,1.01799 8.7062,3.50538 5.2432,6.36109 1.2479,16.020675 -6.8694,16.607833 -3.5297,0.255314 -5.5528,-0.423461 -8.1957,-2.749733 -3.6808,-3.24003 -3.9143,-3.13176 -13.2414,6.140373 l -8.0452,7.997765 z m -59.5077,-43.120284 c -1.5433,-2.18048 -4.7849,-4.41056 -7.571,-5.20859 -1.0344,-0.29629 -1.9493,-0.58673 -2.033,-0.64541 -0.084,-0.0587 2.5175,-3.9455 5.7807,-8.63736 3.2631,-4.69187 6.1648,-9.0395 6.4482,-9.66141 0.7327,-1.60801 -0.1781,-3.45975 -2.4929,-5.06852 -3.6416,-2.53096 -5.1671,-8.24102 -3.293,-12.32628 4.5661,-9.95378 18.3648,-7.38865 19.673,3.65714 0.3753,3.16887 1.8712,4.79453 4.039,4.38951 5.27,-0.98461 6.8067,-0.91835 9.523,0.4106 9.6741,4.73316 6.2461,19.18595 -4.5544,19.20193 -2.1047,0.003 -3.1828,-0.29994 -5.2827,-1.48504 -2.7669,-1.56157 -4.0207,-1.79634 -5.4651,-1.0233 -0.4786,0.25611 -3.6548,4.48787 -7.0583,9.40389 -3.4035,4.91602 -6.2247,8.9337 -6.2694,8.92819 -0.045,-0.006 -0.6945,-0.87643 -1.4441,-1.93535 z"
       id="path11" /></g></svg>
