<?xml version="1.0" encoding="UTF-8" standalone="no"?>
<!-- Created with Inkscape (http://www.inkscape.org/) -->

<svg
   version="1.1"
   id="svg1"
   width="200.07031"
   height="200"
   viewBox="0 0 200.07031 200"
   sodipodi:docname="graphics board.svg"
   inkscape:version="1.4.4 (dcaf3e7d9e, 2026-05-05)"
   xml:space="preserve"
   inkscape:export-filename="../wendys-kitchen/wendys-kitchen/public/wendys-kitchen-logo.svg"
   inkscape:export-xdpi="96"
   inkscape:export-ydpi="96"
   xmlns:inkscape="http://www.inkscape.org/namespaces/inkscape"
   xmlns:sodipodi="http://sodipodi.sourceforge.net/DTD/sodipodi-0.dtd"
   xmlns="http://www.w3.org/2000/svg"
   xmlns:svg="http://www.w3.org/2000/svg"><defs
     id="defs1" /><sodipodi:namedview
     id="namedview1"
     pagecolor="#505050"
     bordercolor="#eeeeee"
     borderopacity="1"
     inkscape:showpageshadow="0"
     inkscape:pageopacity="0"
     inkscape:pagecheckerboard="0"
     inkscape:deskcolor="#505050"
     inkscape:zoom="0.20764918"
     inkscape:cx="777.75409"
     inkscape:cy="1490.4947"
     inkscape:window-width="1366"
     inkscape:window-height="736"
     inkscape:window-x="0"
     inkscape:window-y="0"
     inkscape:window-maximized="1"
     inkscape:current-layer="g1"
     showgrid="false"><inkscape:page
       x="0"
       y="0"
       width="200.07031"
       height="200"
       id="page2"
       margin="0"
       bleed="0" /></sodipodi:namedview><g
     inkscape:groupmode="layer"
     inkscape:label="Image"
     id="g1"
     transform="translate(-4095.0565,-271.87012)"><g
       id="g9"
       transform="translate(759.38085,-1055.6415)"><rect
         style="fill:#dc0000;fill-opacity:1;stroke-width:5.34729"
         id="rect1-1-3"
         width="555.06317"
         height="153.2383"
         x="764.23041"
         y="855.86615"
         ry="27.690935" /><text
         xml:space="preserve"
         style="font-size:85.132px;line-height:1.4;font-family:'Liberation Sans';-inkscape-font-specification:'Liberation Sans';text-align:center;letter-spacing:0px;word-spacing:0px;writing-mode:lr-tb;direction:ltr;text-anchor:middle;fill:#ffffff;fill-opacity:1;stroke-width:7.54115"
         x="1043.8081"
         y="961.3042"
         id="text1-3"><tspan
           sodipodi:role="line"
           id="tspan1-1"
           x="1043.8081"
           y="961.3042"
           style="letter-spacing:0px;fill:#ffffff;stroke-width:7.54115">Order Now!</tspan></text><path
         style="fill:#000000;stroke-width:0.366268"
         d="m 3367.9465,1526.9647 c -7.677,-1.6891 -14.9835,-5.9454 -20.8271,-12.1322 -5.0842,-5.3829 -8.2545,-11.2251 -10.3045,-18.9889 -0.8435,-3.1948 -0.8658,-3.8778 -1.0009,-30.7662 l -0.1383,-27.499 3.0474,3.2398 c 4.6413,4.9342 8.6875,7.9724 14.5288,10.9094 5.0377,2.5328 9.3819,3.8524 16.1597,4.9081 l 1.465,0.2282 v 35.3394 c 0,19.4367 -0.1318,35.3254 -0.293,35.3083 -0.1611,-0.017 -1.3478,-0.2632 -2.6371,-0.5469 z m 14.6507,-7.4237 v -7.2202 l 1.0744,-0.2805 c 0.5909,-0.1544 35.0054,-8.3842 76.4767,-18.2887 l 75.4023,-18.0081 0.1062,7.594 c 0.058,4.1767 0.039,7.6613 -0.043,7.7434 -0.1628,0.1628 -152.1553,35.6804 -152.6894,35.6804 -0.1798,0 -0.3269,-3.2491 -0.3269,-7.2203 z m 0.089,-26.814 0.1062,-7.5257 7.5714,-1.8944 7.5714,-1.8943 0.6193,0.8936 c 1.5037,2.1696 4.3109,4.7625 6.866,6.3419 2.7594,1.7057 7.2268,3.3421 9.1237,3.3421 0.5504,0 0.9213,0.08 0.8241,0.1767 -0.097,0.097 -7.2027,1.8596 -15.7902,3.9166 -8.5875,2.057 -15.9251,3.8366 -16.3059,3.9546 -0.6484,0.2011 -0.6855,-0.2612 -0.586,-7.3111 z m 49.3717,-5.3609 c 4.3481,-3.162 7.8965,-9.2135 8.6885,-14.8177 l 0.2615,-1.8505 7.129,-1.8146 7.1289,-1.8146 2.4412,0.8094 c 3.6762,1.2189 10.0603,1.186 13.8991,-0.071 3.3521,-1.0981 6.9313,-3.2857 9.553,-5.8388 l 1.8672,-1.8185 26.2621,-6.4604 26.2621,-6.4605 0.1059,7.9955 c 0.058,4.3975 -0.03,8.1189 -0.1954,8.2696 -0.2842,0.2587 -103.8263,24.9979 -104.5752,24.986 -0.1934,0 0.3341,-0.5041 1.1721,-1.1135 z m -17.5057,-7.2304 c -2.3649,-0.6663 -4.7102,-2.3017 -6.1936,-4.3187 -2.2263,-3.0274 -2.3204,-3.8961 -2.3204,-21.4298 0,-15.0306 -0.04,-15.9614 -0.6837,-15.7685 -0.376,0.1128 -6.4853,1.6323 -13.5763,3.3767 l -12.8926,3.1716 -5.0789,-0.1759 c -3.5986,-0.1246 -5.9899,-0.4286 -8.2044,-1.0431 -12.9958,-3.606 -23.7163,-13.9854 -27.8557,-26.9694 -1.5464,-4.8507 -1.8309,-7.0562 -1.8143,-14.0647 0.014,-5.8523 0.1446,-7.3152 0.9073,-10.1578 1.6719,-6.2319 4.6008,-11.7506 8.5513,-16.1129 l 1.9363,-2.1381 0.2317,3.1675 c 1.0943,14.9568 11.5527,27.5296 26.2478,31.5546 4.4837,1.2281 13.0971,1.2281 17.5808,0 12.4171,-3.4011 21.8923,-12.8791 25.254,-25.2615 0.6481,-2.3871 0.8572,-4.3023 0.8852,-8.1066 0.027,-3.726 0.1608,-4.9811 0.529,-4.9812 0.4797,-2e-4 115.0635,20.5122 116.8111,20.9111 0.8724,0.1991 0.8791,0.2549 0.8791,7.3723 v 7.1718 l -6.3487,1.5719 c -3.4917,0.8646 -16.843,4.1574 -29.6695,7.3174 l -23.3209,5.7453 -0.1202,13.7306 c -0.1364,15.5736 -0.1644,15.7281 -3.4411,19.0048 -2.3779,2.3778 -4.6386,3.2822 -8.2044,3.2822 -3.5658,0 -5.8266,-0.9044 -8.2044,-3.2822 -3.1677,-3.1677 -3.3045,-3.8063 -3.4408,-16.058 l -0.1199,-10.7838 -10.8193,2.675 c -5.9506,1.4713 -11.2072,2.7653 -11.6813,2.8756 l -0.8622,0.2005 -0.1146,19.6288 c -0.1117,19.1346 -0.1357,19.6745 -0.9542,21.4451 -1.0621,2.2976 -3.6282,4.8807 -5.805,5.8436 -2.2325,0.9875 -5.7875,1.2538 -8.0872,0.6058 z m -31.8649,-15.416 0.1051,-8.4288 5.7701,-1.4449 5.7702,-1.4449 -0.1052,8.4289 -0.1052,8.4288 -5.7701,1.4449 -5.7701,1.4449 z m 58.5437,-11.505 0.031,-5.1766 0.5346,2.4619 c 0.294,1.3541 1.0552,3.5039 1.6916,4.7774 l 1.157,2.3154 -1.4297,0.3971 c -0.7862,0.2184 -1.5614,0.398 -1.7226,0.3992 -0.1611,0 -0.279,-2.3273 -0.2619,-5.1744 z m 46.9411,-14.8244 0.1055,-8.2805 23.4411,-5.7711 c 12.8926,-3.174 23.5765,-5.7769 23.7419,-5.7842 0.1655,-0.01 0.2534,3.7134 0.1954,8.2681 l -0.1055,8.2812 -23.4411,5.7683 c -12.8926,3.1726 -23.5765,5.7752 -23.7419,5.7835 -0.1655,0.01 -0.2534,-3.7111 -0.1954,-8.2653 z m -110.6539,-40.3834 c -8.5902,-1.8516 -15.9567,-9.2901 -17.7745,-17.9481 -1.4343,-6.8316 0.1937,-13.8557 4.4635,-19.2574 l 1.4969,-1.8937 -0.9553,-2.317 c -2.9534,-7.1634 -5.5928,-20.1686 -5.5928,-27.5578 v -1.5213 h 5.8067 5.8068 l 0.2701,3.8092 c 0.5041,7.1079 1.5851,12.5812 3.6659,18.5602 0.8018,2.3042 1.1951,2.9754 1.6406,2.8005 0.3223,-0.1266 2.1003,-0.424 3.951,-0.661 13.2773,-1.6998 25.7276,9.5054 25.7276,23.1547 0,10.7494 -8.0305,20.6461 -18.544,22.8534 -3.3599,0.7055 -6.622,0.6983 -9.9625,-0.022 z"
         id="path42" /></g></g></svg>
