<?xml version="1.0" encoding="UTF-8" standalone="no"?>
<svg
   height="20"
   id="Layer_1"
   version="1.1"
   viewBox="0 0 19.999998 20"
   width="19.999998"
   xml:space="preserve"
   sodipodi:docname="email.svg"
   inkscape:version="1.4.3 (0d15f75042, 2025-12-25)"
   xmlns:inkscape="http://www.inkscape.org/namespaces/inkscape"
   xmlns:sodipodi="http://sodipodi.sourceforge.net/DTD/sodipodi-0.dtd"
   xmlns="http://www.w3.org/2000/svg"
   xmlns:svg="http://www.w3.org/2000/svg"
   xmlns:rdf="http://www.w3.org/1999/02/22-rdf-syntax-ns#"
   xmlns:cc="http://creativecommons.org/ns#"
   xmlns:dc="http://purl.org/dc/elements/1.1/"><metadata
     id="metadata13"><rdf:RDF><cc:Work
         rdf:about=""><dc:format>image/svg+xml</dc:format><dc:type
           rdf:resource="http://purl.org/dc/dcmitype/StillImage" /></cc:Work></rdf:RDF></metadata><defs
     id="defs11" /><sodipodi:namedview
     pagecolor="#ffffff"
     bordercolor="#666666"
     borderopacity="1"
     objecttolerance="10"
     gridtolerance="10"
     guidetolerance="10"
     inkscape:pageopacity="0"
     inkscape:pageshadow="2"
     inkscape:window-width="1366"
     inkscape:window-height="736"
     id="namedview9"
     showgrid="false"
     fit-margin-top="0"
     fit-margin-left="0"
     fit-margin-right="0"
     fit-margin-bottom="0"
     inkscape:zoom="7.375"
     inkscape:cx="2.7118644"
     inkscape:cy="7.7966102"
     inkscape:window-x="0"
     inkscape:window-y="0"
     inkscape:window-maximized="1"
     inkscape:current-layer="Layer_1"
     inkscape:document-rotation="0"
     inkscape:showpageshadow="0"
     inkscape:pagecheckerboard="0"
     inkscape:deskcolor="#505050" /><g
     id="g6"
     transform="matrix(0.04807594,0,0,0.06007048,-2.3076451,-3.9263095)"><path
       d="m 67,148.7 c 11,5.8 163.8,89.1 169.5,92.1 5.7,3 11.5,4.4 20.5,4.4 9,0 14.8,-1.4 20.5,-4.4 5.7,-3 158.5,-86.3 169.5,-92.1 4.1,-2.1 11,-5.9 12.5,-10.2 2.6,-7.6 -0.2,-10.5 -11.3,-10.5 H 257 65.8 c -11.1,0 -13.9,3 -11.3,10.5 1.5,4.4 8.4,8.1 12.5,10.2 z"
       id="path2"
       inkscape:connector-curvature="0" /><path
       d="m 455.7,153.2 c -8.2,4.2 -81.8,56.6 -130.5,88.1 l 82.2,92.5 c 2,2 2.9,4.4 1.8,5.6 -1.2,1.1 -3.8,0.5 -5.9,-1.4 l -98.6,-83.2 c -14.9,9.6 -25.4,16.2 -27.2,17.2 -7.7,3.9 -13.1,4.4 -20.5,4.4 -7.4,0 -12.8,-0.5 -20.5,-4.4 -1.9,-1 -12.3,-7.6 -27.2,-17.2 L 110.7,338 c -2,2 -4.7,2.6 -5.9,1.4 -1.2,-1.1 -0.3,-3.6 1.7,-5.6 l 82.1,-92.5 C 139.9,209.8 65.5,157.4 57.3,153.2 48.5,148.7 48,154 48,158.1 c 0,4.1 0,205 0,205 0,9.3 13.7,20.9 23.5,20.9 H 257 442.5 c 9.8,0 21.5,-11.7 21.5,-20.9 0,0 0,-201 0,-205 0,-4.2 0.6,-9.4 -8.3,-4.9 z"
       id="path4"
       inkscape:connector-curvature="0" /></g></svg>
