<?xml version="1.0" encoding="UTF-8" standalone="no"?>
<!-- Created with Inkscape (http://www.inkscape.org/) -->

<svg
   version="1.1"
   id="svg1"
   width="320.75317"
   height="200"
   viewBox="0 0 320.75318 200"
   sodipodi:docname="graphics board.svg"
   inkscape:version="1.4.4 (dcaf3e7d9e, 2026-05-05)"
   xml:space="preserve"
   inkscape:export-filename="../wendys-kitchen/wendys-kitchen/public/wendys-kitchen-logo.svg"
   inkscape:export-xdpi="96"
   inkscape:export-ydpi="96"
   xmlns:inkscape="http://www.inkscape.org/namespaces/inkscape"
   xmlns:sodipodi="http://sodipodi.sourceforge.net/DTD/sodipodi-0.dtd"
   xmlns="http://www.w3.org/2000/svg"
   xmlns:svg="http://www.w3.org/2000/svg"><defs
     id="defs1" /><sodipodi:namedview
     id="namedview1"
     pagecolor="#505050"
     bordercolor="#eeeeee"
     borderopacity="1"
     inkscape:showpageshadow="0"
     inkscape:pageopacity="0"
     inkscape:pagecheckerboard="0"
     inkscape:deskcolor="#505050"
     inkscape:zoom="0.58732058"
     inkscape:cx="-1989.5438"
     inkscape:cy="1568.9898"
     inkscape:window-width="1366"
     inkscape:window-height="736"
     inkscape:window-x="0"
     inkscape:window-y="0"
     inkscape:window-maximized="1"
     inkscape:current-layer="g21-7"
     showgrid="false"><inkscape:page
       x="0"
       y="0"
       width="320.75317"
       height="200"
       id="page2"
       margin="0"
       bleed="0" /></sodipodi:namedview><g
     inkscape:groupmode="layer"
     inkscape:label="Image"
     id="g1"
     transform="translate(-3464.3028,-125.49182)"><path
       style="fill:#000000;stroke-width:1.33039"
       d="m 3691.4215,325.35729 c -13.6078,-1.92294 -24.8874,-4.96969 -32.3236,-8.73096 -4.6428,-2.34833 -10.1092,-6.11771 -14.0578,-9.69358 -13.0267,-11.79704 -28.5654,-18.76674 -48.2213,-21.62922 -5.3169,-0.77429 -13.7746,-1.04755 -37.9248,-1.22535 -37.276,-0.27443 -50.9537,-1.41621 -67.8001,-5.65977 -14.8475,-3.74009 -24.4496,-9.82419 -26.2897,-16.65779 -0.3589,-1.33308 -0.5743,-6.36747 -0.4787,-11.18755 l 0.1742,-8.76378 3.3937,2.1408 c 4.81,3.03431 11.553,5.71292 19.6817,7.81841 17.8043,4.61177 29.2958,5.6414 69.6992,6.24501 25.85,0.38619 34.4755,0.71796 38.8651,1.49493 18.103,3.2042 29.1611,8.25831 42.6052,19.47279 11.2323,9.36948 26.3072,15.77196 45.468,19.31072 6.0165,1.11119 9.6973,1.3369 22.2534,1.36468 13.084,0.029 16.0125,-0.1508 22.4727,-1.37927 23.0687,-4.38687 40.5056,-13.84658 51.8597,-28.13439 3.6761,-4.62613 3.7111,-4.65058 3.7029,-2.59183 -0.015,3.7262 -2.2964,13.27542 -4.3516,18.21224 -6.7696,16.26126 -19.9585,27.22233 -41.3302,34.34861 -11.2994,3.76775 -19.6514,5.08904 -33.6072,5.31673 -6.5507,0.10683 -12.7566,0.0748 -13.7908,-0.0714 z m 2.1939,-36.0582 c -11.3549,-1.30559 -21.5877,-3.88364 -30.8721,-7.77788 -6.6259,-2.77919 -11.6654,-5.95516 -18.336,-11.55566 -15.5809,-13.08134 -32.7864,-19.92343 -55.1633,-21.93669 -3.7924,-0.34121 -18.0377,-0.60353 -31.6563,-0.58294 -26.0339,0.0394 -37.8612,-0.55389 -52.3424,-2.6255 -21.5936,-3.08906 -35.4236,-9.00963 -39.5114,-16.91461 -1.6009,-3.09575 -1.8547,-7.98032 -0.6358,-12.23292 5.6373,-19.66555 33.2205,-43.85339 70.6766,-61.97632 30.4711,-14.74328 63.0271,-23.6501 100.17,-27.405 10.5106,-1.06255 37.9949,-1.06741 46.3874,-0.008 28.2142,3.5609 51.2878,12.78073 68.9617,27.5559 18.3258,15.32031 30.0475,36.9078 33.26,61.25378 1.0155,7.69603 0.4272,21.19044 -1.191,27.31777 -7.0682,26.76594 -29.3887,43.04917 -64.3596,46.95163 -6.5993,0.73643 -18.6944,0.70624 -25.3878,-0.0633 z m 17.552,-53.54007 c 12.3179,-2.84781 22.1936,-9.75507 26.2151,-18.33529 1.4322,-3.05558 1.68,-4.41674 1.68,-9.22611 0,-5.23123 -0.1556,-5.92866 -2.1387,-9.58588 -7.2448,-13.36127 -27.3483,-20.86216 -46.7998,-17.46166 -13.4299,2.34785 -23.1477,8.63762 -27.7158,17.93907 -1.4895,3.03281 -1.7027,4.21222 -1.7027,9.4219 0,5.58596 0.1331,6.19922 2.1351,9.89257 4.8286,8.90485 14.528,15.11918 27.954,17.90991 3.2717,0.68004 16.6024,0.3172 20.3728,-0.55451 z m -23.0672,-10.29738 c -11.2249,-3.03739 -18.336,-9.62836 -18.288,-16.95059 0.017,-2.66113 2.1644,-6.45667 5.2605,-9.2997 9.6002,-8.81568 28.5938,-10.88 42.0723,-4.57264 17.0285,7.96855 14.8851,23.75766 -4.0971,30.18127 -5.9983,2.02987 -18.6179,2.35445 -24.9477,0.64166 z"
       id="path12" /></g></svg>
