<?xml version="1.0" encoding="UTF-8" standalone="no"?>
<svg
   xmlns:dc="http://purl.org/dc/elements/1.1/"
   xmlns:cc="http://creativecommons.org/ns#"
   xmlns:rdf="http://www.w3.org/1999/02/22-rdf-syntax-ns#"
   xmlns:svg="http://www.w3.org/2000/svg"
   xmlns="http://www.w3.org/2000/svg"
   xmlns:sodipodi="http://sodipodi.sourceforge.net/DTD/sodipodi-0.dtd"
   xmlns:inkscape="http://www.inkscape.org/namespaces/inkscape"
   height="20"
   viewBox="0 0 20 20"
   width="20"
   version="1.1"
   id="svg6"
   sodipodi:docname="phone.svg"
   inkscape:version="1.0.2 (1.0.2+r75+1)">
  <metadata
     id="metadata12">
    <rdf:RDF>
      <cc:Work
         rdf:about="">
        <dc:format>image/svg+xml</dc:format>
        <dc:type
           rdf:resource="http://purl.org/dc/dcmitype/StillImage" />
        <dc:title></dc:title>
      </cc:Work>
    </rdf:RDF>
  </metadata>
  <defs
     id="defs10" />
  <sodipodi:namedview
     pagecolor="#ffffff"
     bordercolor="#666666"
     borderopacity="1"
     objecttolerance="10"
     gridtolerance="10"
     guidetolerance="10"
     inkscape:pageopacity="0"
     inkscape:pageshadow="2"
     inkscape:window-width="1366"
     inkscape:window-height="736"
     id="namedview8"
     showgrid="false"
     scale-x="1"
     fit-margin-top="0"
     fit-margin-left="0"
     fit-margin-right="0"
     fit-margin-bottom="0"
     inkscape:zoom="4.9166667"
     inkscape:cx="18"
     inkscape:cy="18"
     inkscape:window-x="0"
     inkscape:window-y="0"
     inkscape:window-maximized="1"
     inkscape:current-layer="svg6"
     inkscape:document-rotation="0" />
  <path
     d="M -6,8 H 42 V 56 H -6 Z"
     id="path2"
     inkscape:connector-curvature="0"
     style="fill:none" />
  <path
     d="M 4.0277776,8.6611112 C 5.6277776,11.805556 8.2,14.377778 11.35,15.977778 l 2.444444,-2.45 c 0.305556,-0.305556 0.744445,-0.394445 1.127778,-0.272222 1.244445,0.411111 2.583334,0.633333 3.966667,0.633333 C 19.505556,13.888889 20,14.383333 20,15 v 3.888889 C 20,19.505556 19.505556,20 18.888889,20 8.4555556,20 0,11.544444 0,1.1111111 0,0.49444444 0.5,0 1.1111111,0 H 5 c 0.6166668,0 1.1111112,0.49444444 1.1111112,1.1111111 0,1.3833333 0.222222,2.7222222 0.6333332,3.9666665 C 6.8666668,5.4611112 6.7777764,5.9 6.4722224,6.2055556 Z"
     id="path4"
     inkscape:connector-curvature="0"
     style="stroke-width:0.555556" />
</svg>
