<?xml version="1.0" encoding="UTF-8" standalone="no"?>
<!-- Created with Inkscape (http://www.inkscape.org/) -->

<svg
   version="1.1"
   id="svg1"
   width="199.72583"
   height="199.99976"
   viewBox="0 0 199.72583 199.99976"
   sodipodi:docname="graphics board.svg"
   inkscape:version="1.4.4 (dcaf3e7d9e, 2026-05-05)"
   xml:space="preserve"
   inkscape:export-filename="../wendys-kitchen/wendys-kitchen/public/wendys-kitchen-logo.svg"
   inkscape:export-xdpi="96"
   inkscape:export-ydpi="96"
   xmlns:inkscape="http://www.inkscape.org/namespaces/inkscape"
   xmlns:sodipodi="http://sodipodi.sourceforge.net/DTD/sodipodi-0.dtd"
   xmlns="http://www.w3.org/2000/svg"
   xmlns:svg="http://www.w3.org/2000/svg"><defs
     id="defs1" /><sodipodi:namedview
     id="namedview1"
     pagecolor="#505050"
     bordercolor="#eeeeee"
     borderopacity="1"
     inkscape:showpageshadow="0"
     inkscape:pageopacity="0"
     inkscape:pagecheckerboard="0"
     inkscape:deskcolor="#505050"
     inkscape:zoom="0.20764918"
     inkscape:cx="777.75409"
     inkscape:cy="1490.4947"
     inkscape:window-width="1366"
     inkscape:window-height="736"
     inkscape:window-x="0"
     inkscape:window-y="0"
     inkscape:window-maximized="1"
     inkscape:current-layer="g1"
     showgrid="false"><inkscape:page
       x="0"
       y="0"
       width="199.72583"
       height="199.99976"
       id="page2"
       margin="0"
       bleed="0" /></sodipodi:namedview><g
     inkscape:groupmode="layer"
     inkscape:label="Image"
     id="g1"
     transform="translate(-3806.3877,-772.86363)"><path
       style="fill:#000000;stroke-width:0.430944"
       d="m 3933.4502,972.12447 c -2.4281,-0.86111 -5.0746,-3.22841 -6.1937,-5.54016 -1.1573,-2.39071 -0.8198,2.6029 -4.2606,-63.03714 l -2.8745,-54.83759 h 37.6093 37.6093 l -0.016,2.6934 c -0.01,1.48136 -1.3326,27.53136 -2.9427,57.88884 -2.8292,53.34341 -2.9601,55.26287 -3.901,57.2066 -1.1952,2.46883 -3.7958,4.76184 -6.4116,5.65316 -2.8337,0.96553 -45.8879,0.94153 -48.6191,-0.0272 z m -79.9587,-8.36978 c -8.2005,-1.44465 -13.5811,-3.7973 -20.4018,-8.92075 -11.7862,-8.85326 -19.6962,-20.64879 -23.7391,-35.40034 -2.6019,-9.49343 -2.9548,-11.98906 -2.9628,-20.95002 -0.01,-8.78983 0.4811,-12.28254 2.6241,-18.74605 2.1357,-6.44165 6.4202,-14.00637 10.5853,-18.68969 l 1.8661,-2.09831 2.7966,0.71382 c 3.2364,0.82607 6.873,2.87827 8.6342,4.87242 l 1.2274,1.38957 -1.6695,3.56628 c -3.6455,7.7876 -5.1789,14.20818 -5.4829,22.95875 -0.3658,10.53162 1.3647,18.30524 6.3798,28.65775 7.5912,15.67023 18.0485,26.87994 31.5584,33.82907 l 2.5134,1.29284 -0.1859,2.02883 c -0.341,3.71982 -3.4299,6.4112 -7.2762,6.33979 -1.0308,-0.019 -3.941,-0.39893 -6.4671,-0.84396 z m 33.3322,-8.6334 c -8.6437,-1.12209 -19.2458,-5.74542 -27.5849,-12.0291 -12.1584,-9.16169 -22.6978,-26.46442 -24.8608,-40.8148 -1.5809,-10.48839 -0.1464,-20.40595 4.2888,-29.65042 3.0058,-6.26517 2.3697,-6.00643 7.9731,-3.24309 4.6223,2.27962 4.7983,2.41779 5.2137,4.09398 1.0696,4.31625 4.1066,12.88086 6.244,17.60857 4.6261,10.2328 10.3977,18.5894 18.1461,26.27339 10.5283,10.44081 22.1728,17.21749 37.5402,21.84707 l 4.4172,1.33071 0.081,3.64453 c 0.044,2.0045 0.093,4.1668 0.1077,4.8052 0.026,1.11821 -0.2056,1.23681 -6.3319,3.24298 -9.3921,3.0756 -17.0519,3.95317 -25.234,2.89098 z m 24.9132,-23.84212 c -17.5454,-6.03744 -31.1879,-16.50325 -41.0647,-31.50276 -4.5496,-6.90932 -9.3507,-17.76069 -11.5779,-26.16832 l -0.9955,-3.7578 1.6083,-3.25035 1.6083,-3.2503 1.6166,0.69158 c 0.8891,0.38035 1.8373,0.78332 2.1071,0.8955 0.2698,0.11217 1.1069,1.69447 1.8602,3.51615 6.2803,15.18669 18.2766,28.5231 32.9867,36.67142 5.1221,2.83729 10.1136,4.79162 13.6272,5.33547 l 2.856,0.44207 0.264,3.91805 c 0.1451,2.15493 0.3749,6.633 0.5105,9.95126 0.1357,3.31827 0.3358,6.46954 0.4447,7.00284 0.2736,1.33885 -0.7822,1.24956 -5.8515,-0.49481 z m -62.3791,-68.25274 c -1.7184,-0.86727 -3.1243,-1.71098 -3.1243,-1.87495 0,-0.16393 0.7451,-1.24073 1.6558,-2.39286 0.9107,-1.15213 1.8661,-2.48771 2.1232,-2.96799 0.257,-0.48029 0.6877,-4.45165 0.9572,-8.82525 0.4004,-6.4998 0.6978,-8.60134 1.6286,-11.50732 0.6264,-1.9554 1.3694,-3.55528 1.6511,-3.55528 0.2817,0 1.7796,0.39147 3.3287,0.86994 l 2.8164,0.86991 -1.2628,3.7358 c -1.1855,3.50728 -1.2627,4.15245 -1.2627,10.54537 v 6.80951 l -2.4693,4.96059 c -1.3581,2.72835 -2.5701,4.94909 -2.6934,4.93499 -0.1233,-0.0142 -1.6301,-0.73519 -3.3485,-1.60246 z m -12.8411,-4.43385 c -0.6997,-0.73437 -2.2904,-1.94631 -3.5347,-2.69318 -1.2444,-0.74691 -2.2625,-1.47094 -2.2625,-1.60902 0,-0.13803 1.194,-0.81995 2.6532,-1.51532 2.4959,-1.18936 2.8449,-1.55187 5.8843,-6.11246 2.4684,-3.70388 3.4525,-4.84812 4.1696,-4.84812 0.8731,0 0.9278,0.17264 0.7844,2.47793 -0.5599,9.00185 -0.3992,8.39986 -3.2185,12.05577 -1.421,1.84276 -2.7232,3.40204 -2.8936,3.46505 -0.1704,0.063 -0.8824,-0.48628 -1.5822,-1.22065 z m 73.0655,-20.22565 v -3.44755 h 48.2657 48.2657 v 3.44755 3.44755 h -48.2657 -48.2657 z m 8.2368,-13.03604 c 4.8175,-9.58195 13.5669,-17.58815 23.6745,-21.66358 3.0674,-1.23677 7.1915,-2.26116 12.1016,-3.00592 l 1.5649,-0.23736 2.0186,-8.07028 c 2.3989,-9.59061 2.9827,-11.0185 5.6876,-13.91013 4.5447,-4.85867 7.0732,-5.56818 19.8687,-5.57499 l 9.5885,-0.005 v 3.44755 3.44755 l -9.5885,0.004 c -9.1526,0.004 -9.6873,0.0502 -11.7609,1.01577 -2.3043,1.07305 -4.0376,2.80614 -4.8487,4.84825 -0.2714,0.68326 -1.1869,4.05423 -2.0344,7.49101 -0.8475,3.43677 -1.6337,6.56081 -1.7471,6.94232 -0.1654,0.55635 0.2532,0.74769 2.1146,0.96644 3.6194,0.42538 9.5986,2.30968 13.4063,4.22493 8.6801,4.36584 15.4731,11.07292 19.682,19.43292 l 1.6814,3.33982 h -41.3816 -41.3816 z"
       id="path43" /></g></svg>
