<?xml version="1.0" encoding="UTF-8" standalone="no"?>
<!-- Created with Inkscape (http://www.inkscape.org/) -->

<svg
   version="1.1"
   id="svg1"
   width="263.87646"
   height="200"
   viewBox="0 0 263.87647 200"
   sodipodi:docname="graphics board.svg"
   inkscape:version="1.4.4 (dcaf3e7d9e, 2026-05-05)"
   xml:space="preserve"
   inkscape:export-filename="../wendys-kitchen/wendys-kitchen/public/wendys-kitchen-logo.svg"
   inkscape:export-xdpi="96"
   inkscape:export-ydpi="96"
   xmlns:inkscape="http://www.inkscape.org/namespaces/inkscape"
   xmlns:sodipodi="http://sodipodi.sourceforge.net/DTD/sodipodi-0.dtd"
   xmlns="http://www.w3.org/2000/svg"
   xmlns:svg="http://www.w3.org/2000/svg"><defs
     id="defs1" /><sodipodi:namedview
     id="namedview1"
     pagecolor="#505050"
     bordercolor="#eeeeee"
     borderopacity="1"
     inkscape:showpageshadow="0"
     inkscape:pageopacity="0"
     inkscape:pagecheckerboard="0"
     inkscape:deskcolor="#505050"
     inkscape:zoom="0.58732058"
     inkscape:cx="-1989.5438"
     inkscape:cy="1568.9898"
     inkscape:window-width="1366"
     inkscape:window-height="736"
     inkscape:window-x="0"
     inkscape:window-y="0"
     inkscape:window-maximized="1"
     inkscape:current-layer="g21-7"
     showgrid="false"><inkscape:page
       x="0"
       y="0"
       width="263.87646"
       height="200"
       id="page2"
       margin="0"
       bleed="0" /></sodipodi:namedview><g
     inkscape:groupmode="layer"
     inkscape:label="Image"
     id="g1"
     transform="translate(-3433.4297,-403.18091)"><path
       style="fill:#000000;stroke-width:0.973965"
       d="m 3454.1515,601.50286 c -2.9021,-3.13144 -4.3382,-8.27957 -4.0277,-14.43848 0.4598,-9.11577 1.2647,-10.19731 12.6003,-16.92864 5.2249,-3.1026 10.7248,-6.37937 12.2223,-7.28171 l 2.7225,-1.64063 0.4173,1.66227 c 0.3343,1.33238 -0.1521,2.39347 -2.4514,5.3467 -9.1856,11.79805 -14.6986,23.10521 -14.6986,30.14666 0,4.66032 -3.7603,6.39719 -6.7847,3.13383 z m 63.667,-3.16972 c -8.7627,-1.90237 -17.6252,-7.30379 -23.5418,-14.34794 -3.527,-4.19918 -7.6443,-12.31562 -8.9081,-17.56092 -1.1066,-4.59292 -1.0961,-14.82409 0.021,-19.3501 4.2073,-17.06163 18.746,-30.19542 35.8125,-32.352 5.0653,-0.64006 7.2316,-0.34936 81.9582,10.99817 42.2154,6.41058 78.1246,11.97774 79.7981,12.37146 8.397,1.97564 14.3903,9.76926 14.3475,18.65743 -0.025,5.24525 -1.0328,8.21272 -4.1095,12.10301 -5.0463,6.38081 0.3015,5.247 -87.5693,18.56634 -43.182,6.54547 -79.6882,11.87778 -81.125,11.84957 -1.4367,-0.0281 -4.444,-0.44896 -6.6827,-0.93502 z m -79.2921,-26.75062 c -2.8305,-0.64754 -3.8993,-1.65213 -4.7388,-4.45399 -1.685,-5.62418 2.728,-12.09088 10.1565,-14.88298 4.559,-1.71353 13.1716,-2.08729 15.7021,-0.68142 0.8869,0.49274 4.1706,1.8108 7.2972,2.92901 l 5.6847,2.03313 -11.018,6.59945 c -6.0599,3.62971 -11.9559,6.97905 -13.1023,7.44296 -2.7959,1.13157 -7.4157,1.60081 -9.9814,1.01384 z M 3470.23,548.4524 c -11.9817,-4.00772 -20.1887,-9.85834 -23.9883,-17.10074 -1.537,-2.92954 -1.735,-4.02469 -1.7435,-9.63873 l -0.01,-6.33367 2.7163,-2.53512 c 4.8932,-4.56685 8.7992,-2.70041 10.7803,5.15124 1.6827,6.66899 6.6164,14.28741 15.9459,24.62326 4.023,4.457 5.311,7.05388 3.9237,7.91127 -0.2731,0.16876 -3.7043,-0.76611 -7.6249,-2.07751 z m 209.158,-17.70755 c -4.2983,-0.64035 -4.3873,-0.69234 -3.9711,-2.32164 4.8404,-18.95051 4.2387,-39.22709 -1.6935,-57.06536 -2.5709,-7.73106 -7.5199,-17.17504 -11.8312,-22.57711 -1.9512,-2.44502 -3.4185,-4.65466 -3.2605,-4.9103 0.671,-1.08576 6.3937,-2.08685 10.1882,-1.78226 4.9832,0.4 8.6253,2.19189 13.147,6.4683 16.0466,15.17627 20.1881,50.72219 8.624,74.01996 -2.0949,4.22044 -5.417,9.0299 -6.1611,8.91931 -0.3548,-0.0527 -2.6235,-0.39064 -5.0418,-0.7509 z m -52.3634,-8.01336 c -21.9947,-3.36986 -40.1354,-6.26175 -40.3127,-6.42643 -0.1774,-0.16468 -0.3191,-6.29774 -0.3149,-13.62904 0.01,-10.53897 0.2571,-14.47195 1.1988,-18.78602 3.4706,-15.89872 10.066,-28.63341 19.2223,-37.11538 l 4.0814,-3.78074 0.5049,4.59422 0.505,4.59422 -2.8007,2.80072 c -10.5837,10.58368 0.4772,23.94062 19.8508,23.97149 19.5056,0.0311 30.5597,-14.1119 19.1848,-24.5457 l -2.2267,-2.04241 0.551,-4.60333 0.5511,-4.60332 3.585,3.20083 c 13.2846,11.86069 21.2518,32.90334 21.2449,56.11121 0,11.38251 -2.3715,26.64934 -4.1051,26.46448 -0.4014,-0.0427 -18.7254,-2.83495 -40.7199,-6.2048 z m -56.0159,-8.52305 c -3.875,-0.62076 -7.2237,-1.48984 -7.507,-1.94828 -1.4258,-2.30701 -2.7924,-12.4502 -2.783,-20.65624 0.015,-13.24432 2.4817,-23.91751 7.7196,-33.40415 2.9184,-5.28554 8.9137,-11.64689 13.2301,-14.03799 3.0506,-1.68996 4.0385,-1.89936 8.9134,-1.88941 3.0154,0.006 6.3138,0.37436 7.3298,0.81822 l 1.8472,0.80701 -1.712,2.0843 c -3.3463,4.07397 -8.7767,12.65508 -10.6482,16.82634 -5.7212,12.75129 -8.0289,24.51218 -8.0234,40.88948 0,7.94735 -0.2194,11.74858 -0.6835,11.70134 -0.378,-0.0385 -3.8354,-0.57427 -7.683,-1.19062 z m -70.1879,-5.75066 c -0.2224,-5.53521 -0.5125,-6.83902 -2.3552,-10.582 -4.6999,-9.54674 -14.8453,-14.61701 -29.3056,-14.6457 l -5.6437,-0.0112 v -2.477 c 0,-1.47915 0.8049,-4.088 1.9983,-6.47611 2.7019,-5.40691 2.3615,-6.3284 -3.3183,-8.98357 -10.3129,-4.82102 -14.3865,-11.9081 -12.0277,-20.92494 1.3674,-5.22729 3.9477,-9.28864 7.4112,-11.66518 4.1333,-2.83614 5.5769,-4.47959 6.5654,-7.47489 1.3077,-3.96234 3.7867,-6.42367 9.0561,-8.99125 4.3519,-2.1206 4.9672,-2.66117 6.4324,-5.65132 2.1537,-4.3955 2.9651,-5.26661 5.5765,-5.98766 1.5985,-0.44137 3.3057,-0.32909 6.2124,0.40857 3.2965,0.83658 4.6461,0.88541 7.6011,0.27507 1.9761,-0.40816 4.4461,-0.74102 5.4891,-0.7397 2.9045,0.004 5.8734,2.19579 7.6088,5.61811 1.9059,3.75839 3.0961,4.88103 6.9063,6.51414 3.5961,1.54136 6.1445,4.4431 7.0704,8.05076 1.9344,7.5382 2.0087,7.65504 7.8598,12.3722 8.2029,6.61302 11.5364,11.28186 12.7955,17.92097 1.1281,5.94839 -0.8057,12.15642 -5.9205,19.00735 -3.2571,4.3624 -3.5625,5.25113 -4.4063,12.81837 -0.7628,6.84027 -1.9277,11.94199 -3.9786,17.4235 l -1.2994,3.47269 -5.2749,0.0154 c -2.9012,0.009 -6.4277,0.28268 -7.8368,0.60936 -1.409,0.32669 -2.6236,0.53224 -2.6991,0.45678 -0.075,-0.0755 0.4422,-3.46987 1.1503,-7.54314 1.9225,-11.05859 1.4841,-25.91046 -0.9871,-33.42769 -0.9729,-2.95991 -1.6752,-5.43914 -1.5606,-5.5094 5.4933,-3.36759 7.8339,-6.47233 8.9566,-11.88006 1.7161,-8.26646 -1.698,-15.31842 -5.4232,-11.20203 -0.7913,0.87427 -1.0678,2.41838 -1.0685,5.96628 0,5.17806 -1.1914,8.50525 -3.5991,10.06021 -1.2739,0.82271 -1.4777,0.59434 -3.9837,-4.46296 -4.3809,-8.84113 -10.179,-15.68087 -15.2519,-17.99228 -1.3206,-0.60168 -1.6744,-1.22241 -1.6744,-2.93758 0,-3.946 -2.7243,-8.29479 -5.8923,-9.40603 -1.5108,-0.52994 -3.7828,1.28181 -3.7828,3.0165 0,0.81158 0.7254,2.31895 1.6118,3.34969 0.8864,1.03074 1.6121,2.21284 1.6125,2.62689 4e-4,0.41404 -1.465,1.06715 -3.2565,1.45136 -7.902,1.69466 -11.778,5.66119 -8.4633,8.66092 1.5602,1.41195 1.9998,1.36271 5.5503,-0.62172 4.0003,-2.23581 8.6707,-1.9692 12.7427,0.72744 l 2.7801,1.84106 -4.6637,0.78673 c -8.0739,1.362 -13.6532,4.96797 -12.8205,8.28598 0.6609,2.63323 2.9216,2.72603 7.808,0.32049 4.9188,-2.42154 9.9261,-2.7893 14.0615,-1.03274 2.0622,0.87597 2.7675,1.73332 4.4542,5.41429 2.0315,4.43376 6.3517,16.47902 6.0283,16.80789 -0.097,0.0986 -0.9767,-0.12502 -1.9551,-0.49697 -0.9782,-0.37194 -3.8191,-0.96564 -6.3129,-1.31933 -3.7685,-0.53446 -4.7904,-0.47526 -6.0508,0.35058 -3.2942,2.15846 -1.0822,6.12395 3.4159,6.12395 3.7677,0 9.1725,1.79123 11.0401,3.65885 1.5984,1.59837 1.6212,1.75884 1.2521,8.82087 -0.3639,6.96676 -1.7443,15.93364 -3.1205,20.27157 -0.503,1.58531 -1.4443,2.50573 -3.7659,3.68216 l -3.0952,1.56851 z m 121.6888,-36.64004 c -5.9755,-1.32684 -10.6427,-4.98417 -10.6427,-8.33992 0,-1.69807 0.6075,-2.59626 3.3595,-4.96725 l 3.3595,-2.89435 -1.261,-18.61008 c -1.4614,-21.5696 -1.4447,-23.16026 0.2765,-26.53415 4.9306,-9.66492 17.5747,-9.7356 22.4844,-0.12566 1.7655,3.4555 1.8232,6.28611 0.5011,24.57525 -1.423,19.68496 -1.4209,21.33458 0.028,22.14275 2.7357,1.52591 5.4371,4.7639 5.4371,6.51732 0,2.72738 -4.1224,6.27603 -8.8228,7.59493 -3.548,0.99549 -11.5537,1.34419 -14.7198,0.64116 z"
       id="path13" /></g></svg>
