<?xml version="1.0" encoding="UTF-8" standalone="no"?>
<svg
   viewBox="0 0 20 20"
   version="1.1"
   id="svg8"
   sodipodi:docname="whatsapp.svg"
   width="20"
   height="20"
   inkscape:version="1.4.3 (0d15f75042, 2025-12-25)"
   xmlns:inkscape="http://www.inkscape.org/namespaces/inkscape"
   xmlns:sodipodi="http://sodipodi.sourceforge.net/DTD/sodipodi-0.dtd"
   xmlns="http://www.w3.org/2000/svg"
   xmlns:svg="http://www.w3.org/2000/svg">
  <defs
     id="defs12" />
  <sodipodi:namedview
     id="namedview10"
     pagecolor="#ffffff"
     bordercolor="#666666"
     borderopacity="1.0"
     inkscape:pageshadow="2"
     inkscape:pageopacity="0.0"
     inkscape:pagecheckerboard="0"
     showgrid="false"
     inkscape:zoom="21.083333"
     inkscape:cx="8.4189725"
     inkscape:cy="10.932806"
     inkscape:window-width="1366"
     inkscape:window-height="736"
     inkscape:window-x="0"
     inkscape:window-y="0"
     inkscape:window-maximized="1"
     inkscape:current-layer="svg8"
     inkscape:showpageshadow="0"
     inkscape:deskcolor="#505050" />
  <g
     id="g6"
     transform="matrix(0.914361,0,0,0.914361,-0.61660105,-0.28458501)">
    <path
       d="M 0,0 H 24 V 24 H 0 Z"
       fill="none"
       id="path2" />
    <path
       d="M 2.004,22 3.356,17.032 A 9.954,9.954 0 0 1 2,12 C 2,6.477 6.477,2 12,2 17.523,2 22,6.477 22,12 22,17.523 17.523,22 12,22 A 9.954,9.954 0 0 1 6.97,20.645 Z M 8.391,7.308 A 0.961,0.961 0 0 0 8.02,7.408 1.293,1.293 0 0 0 7.726,7.636 C 7.606,7.749 7.538,7.847 7.465,7.942 A 2.729,2.729 0 0 0 6.9,9.62 c 0.002,0.49 0.13,0.967 0.33,1.413 0.409,0.902 1.082,1.857 1.971,2.742 0.214,0.213 0.423,0.427 0.648,0.626 a 9.448,9.448 0 0 0 3.84,2.046 l 0.569,0.087 c 0.185,0.01 0.37,-0.004 0.556,-0.013 a 1.99,1.99 0 0 0 0.833,-0.231 c 0.166,-0.088 0.244,-0.132 0.383,-0.22 0,0 0.043,-0.028 0.125,-0.09 0.135,-0.1 0.218,-0.171 0.33,-0.288 0.083,-0.086 0.155,-0.187 0.21,-0.302 0.078,-0.163 0.156,-0.474 0.188,-0.733 0.024,-0.198 0.017,-0.306 0.014,-0.373 -0.004,-0.107 -0.093,-0.218 -0.19,-0.265 l -0.582,-0.261 c 0,0 -0.87,-0.379 -1.401,-0.621 a 0.498,0.498 0 0 0 -0.177,-0.041 0.482,0.482 0 0 0 -0.378,0.127 v -0.002 c -0.005,0 -0.072,0.057 -0.795,0.933 a 0.35,0.35 0 0 1 -0.368,0.13 1.416,1.416 0 0 1 -0.191,-0.066 c -0.124,-0.052 -0.167,-0.072 -0.252,-0.109 l -0.005,-0.002 a 6.01,6.01 0 0 1 -1.57,-1 c -0.126,-0.11 -0.243,-0.23 -0.363,-0.346 A 6.296,6.296 0 0 1 9.605,11.493 L 9.546,11.398 A 0.923,0.923 0 0 1 9.444,11.193 c -0.038,-0.147 0.061,-0.265 0.061,-0.265 0,0 0.243,-0.266 0.356,-0.41 a 4.38,4.38 0 0 0 0.263,-0.373 C 10.242,9.955 10.279,9.76 10.217,9.609 9.937,8.925 9.647,8.244 9.349,7.568 9.29,7.434 9.115,7.338 8.956,7.319 8.902,7.313 8.848,7.307 8.794,7.303 A 3.385,3.385 0 0 0 8.391,7.307 Z"
       fill-rule="nonzero"
       id="path4" />
  </g>
</svg>
