<?xml version="1.0" encoding="UTF-8" standalone="no"?>
<!-- Created with Inkscape (http://www.inkscape.org/) -->

<svg
   version="1.1"
   id="svg1"
   width="687.21875"
   height="330.25372"
   viewBox="0 0 687.21876 330.25372"
   sodipodi:docname="graphics board.svg"
   inkscape:version="1.4.4 (dcaf3e7d9e, 2026-05-05)"
   xml:space="preserve"
   inkscape:export-filename="../wendys-kitchen/wendys-kitchen/public/wendys-kitchen-logo.svg"
   inkscape:export-xdpi="96"
   inkscape:export-ydpi="96"
   xmlns:inkscape="http://www.inkscape.org/namespaces/inkscape"
   xmlns:sodipodi="http://sodipodi.sourceforge.net/DTD/sodipodi-0.dtd"
   xmlns="http://www.w3.org/2000/svg"
   xmlns:svg="http://www.w3.org/2000/svg"><defs
     id="defs1"><filter
       inkscape:collect="always"
       style="color-interpolation-filters:sRGB"
       id="filter9-5"
       x="-0.20146367"
       y="-0.55125955"
       width="1.4029273"
       height="2.1025191"><feGaussianBlur
         inkscape:collect="always"
         stdDeviation="11.873627"
         id="feGaussianBlur9-25" /></filter></defs><sodipodi:namedview
     id="namedview1"
     pagecolor="#505050"
     bordercolor="#eeeeee"
     borderopacity="1"
     inkscape:showpageshadow="0"
     inkscape:pageopacity="0"
     inkscape:pagecheckerboard="0"
     inkscape:deskcolor="#505050"
     inkscape:zoom="0.58732057"
     inkscape:cx="-6382.3748"
     inkscape:cy="1262.5132"
     inkscape:window-width="1366"
     inkscape:window-height="736"
     inkscape:window-x="0"
     inkscape:window-y="0"
     inkscape:window-maximized="1"
     inkscape:current-layer="g47"
     showgrid="false"><inkscape:page
       x="0"
       y="0"
       width="687.21875"
       height="330.25372"
       id="page2"
       margin="0"
       bleed="0" /></sodipodi:namedview><g
     inkscape:groupmode="layer"
     inkscape:label="Image"
     id="g1"
     transform="translate(4495.1693,319.08818)"><g
       inkscape:label="Image"
       id="g1-7"
       transform="translate(-2761.0958,-1417.2347)"><text
         xml:space="preserve"
         style="font-style:normal;font-variant:normal;font-weight:normal;font-stretch:normal;font-size:141.297px;line-height:1;font-family:'Lily Script One';-inkscape-font-specification:'Lily Script One';text-align:start;letter-spacing:0px;word-spacing:0px;writing-mode:lr-tb;direction:ltr;text-anchor:start;fill:#ffffff;fill-opacity:1;stroke-width:12.5164"
         x="-1527.2572"
         y="1316.8236"
         id="text2-5-5-4"
         inkscape:export-filename="dont-cook-dinner/public/dont-cook-dinner-logo.svg"
         inkscape:export-xdpi="96"
         inkscape:export-ydpi="96"><tspan
           sodipodi:role="line"
           x="-1527.2572"
           y="1316.8236"
           style="font-style:normal;font-variant:normal;font-weight:normal;font-stretch:normal;line-height:1;font-family:'Lily Script One';-inkscape-font-specification:'Lily Script One';letter-spacing:0px;fill:#ffffff;stroke-width:12.5164"
           id="tspan3-9-6-4">Wendys</tspan><tspan
           sodipodi:role="line"
           x="-1527.2572"
           y="1458.1206"
           style="font-style:normal;font-variant:normal;font-weight:normal;font-stretch:normal;line-height:1;font-family:'Lily Script One';-inkscape-font-specification:'Lily Script One';letter-spacing:0px;fill:#ffffff;stroke-width:12.5164"
           id="tspan7-2-3" /></text><path
         d="m -1450.2034,1351.93 q 0,5.1675 -3.3848,8.2164 -3.3589,3.0488 -9.1465,3.0488 h -10.6968 v 14.1849 h -4.935 v -36.4053 h 15.3217 q 6.1236,0 9.4825,2.868 3.3589,2.868 3.3589,8.0872 z m -4.9609,0.052 q 0,-7.0537 -8.4747,-7.0537 h -9.7925 v 14.3657 h 9.9992 q 8.268,0 8.268,-7.312 z m 33.9766,25.3984 -4.1599,-10.6451 h -16.5878 l -4.1857,10.6451 h -5.1158 l 14.8567,-36.4053 h 5.6067 l 14.6242,36.4053 z m -12.4538,-32.6847 -0.2325,0.7235 q -0.6459,2.1445 -1.912,5.5034 l -4.6508,11.9629 h 13.6165 l -4.6766,-12.0145 q -0.7235,-1.7828 -1.4469,-4.0307 z m 45.5519,32.6847 -19.4816,-31.0052 0.1292,2.5062 0.1292,4.3149 v 24.1841 h -4.3924 v -36.4053 h 5.7359 l 19.6883,31.212 q -0.31,-5.0642 -0.31,-7.338 v -23.874 h 4.4441 v 36.4053 z m 28.8607,-32.3746 v 32.3746 h -4.9092 v -32.3746 h -12.5054 v -4.0307 h 29.9201 v 4.0307 z m 43.7949,32.3746 -9.4566,-15.115 h -11.3427 v 15.115 h -4.935 v -36.4053 h 17.1304 q 6.1493,0 9.4824,2.7646 3.3589,2.7388 3.3589,7.648 0,4.0565 -2.3771,6.8212 -2.3512,2.7646 -6.5111,3.488 l 10.3351,15.6835 z m -0.7234,-25.941 q 0,-3.1781 -2.1704,-4.8317 -2.1445,-1.6794 -6.2011,-1.6794 h -11.7044 v 13.4356 h 11.9111 q 3.9015,0 6.0202,-1.8087 2.1446,-1.8344 2.1446,-5.1158 z m 27.9822,10.8518 v 15.0892 h -4.9092 v -15.0892 l -14.004,-21.3161 h 5.4259 l 11.0844,17.3371 11.0327,-17.3371 h 5.4259 z"
         id="text8-9-0"
         style="font-size:52.9156px;line-height:1;font-family:'Liberation Sans';-inkscape-font-specification:'Liberation Sans';text-align:center;letter-spacing:0px;word-spacing:0px;text-anchor:middle;fill:#ffffff;stroke-width:6.24992"
         aria-label="PANTRY" /><path
         d="m -1445.0298,1219.5831 -0.1413,1.8369 q -5.3692,41.2587 -7.0648,50.8669 -2.826,15.8252 -2.826,24.1618 0,8.1952 7.0649,8.1952 5.9345,0 10.5973,-8.4778 4.6628,-8.6192 7.0648,-21.3359 4.9454,-26.5638 4.9454,-45.9215 0,-9.043 -1.5542,-15.684 5.6518,-3.3911 13.5645,-3.3911 7.9126,0 7.9126,9.3256 0,14.5536 -4.5215,44.226 -3.6737,24.7269 -10.1734,36.3133 -2.9672,4.9454 -6.7822,9.4669 -7.9127,9.1843 -22.1837,9.1843 -14.1297,0 -20.2054,-12.1515 -7.7714,12.1515 -23.5966,12.1515 -10.1734,0 -15.8253,-5.7932 -5.5106,-5.9345 -5.5106,-15.6839 0,-1.2717 0.2826,-3.8151 l 5.228,-39.8457 q -15.1188,-10.8799 -15.1188,-24.4444 0,-8.6191 5.9345,-13.7058 5.9345,-5.0867 14.4123,-5.0867 18.5099,0 18.5099,18.3686 0,0.2826 -0.1413,0.7065 0,0.4239 -0.1413,1.413 0,0.8477 -0.2826,2.1194 -0.1413,1.1304 -0.5652,3.5324 -0.2826,2.4021 -0.7065,5.3693 -0.4239,2.826 -1.1304,7.6301 -0.7064,4.8041 -1.5542,10.4559 -0.7065,5.5106 -1.8369,13.5646 -1.1304,8.0539 -1.9781,13.7058 -0.8478,5.6518 -0.8478,8.1952 0,9.4669 7.3474,9.4669 10.1734,0 12.5755,-18.5099 l 9.043,-71.355 q 4.6628,-2.1195 11.1624,-2.1195 9.043,0 9.043,7.0649 z m -64.0075,1.6956 q -2.6846,0 -3.9563,1.9781 -1.2717,1.9782 -1.2717,4.5215 0,6.3584 7.0649,13.1406 l 0.7064,-5.6518 q 0.5652,-4.6628 0.5652,-9.3256 0.1413,-4.6628 -3.1085,-4.6628 z m 132.9604,64.5727 q 8.7604,-1.8369 12.9993,-7.0649 4.3803,-5.228 4.3803,-10.0321 0,-4.9453 -2.6847,-6.6409 -2.5433,-1.8369 -5.6519,-1.8369 -6.6409,0 -11.7276,7.4888 -4.9454,7.3474 -4.9454,17.6621 0,10.1734 4.8041,15.2601 4.9454,4.9454 12.1515,4.9454 10.5973,0 20.3468,-7.3475 9.7495,-7.3474 15.8253,-19.2164 3.1085,2.9673 5.6518,7.3475 -4.6628,10.5972 -16.5317,20.7706 -5.9345,4.9454 -14.1297,8.054 -8.0539,3.1085 -16.6731,3.1085 -14.1297,0 -22.3249,-8.6191 -8.7604,-9.3256 -8.7604,-23.8792 0,-14.5536 10.8799,-25.4335 11.0211,-10.8798 26.2812,-10.8798 10.8799,0 17.6621,4.8041 6.7823,4.6628 6.9236,12.7167 0,10.8799 -8.7604,17.6621 -8.6191,6.7823 -23.7379,9.4669 z m 79.8328,15.8252 3.3911,-31.5092 q 0,-3.815 -1.9782,-6.3583 -1.9781,-2.5434 -6.6409,-2.5434 -4.5215,0 -7.7714,4.0976 -3.1085,3.9563 -3.9563,10.0321 -5.0867,38.7154 -5.3693,42.1065 h -19.075 l 7.7713,-66.5509 q 5.9345,-1.5542 9.043,-1.5542 9.4669,0 9.8908,6.9235 6.9235,-6.7822 16.5317,-6.7822 9.7495,0 15.2601,4.8041 5.5106,4.8041 5.5106,12.1515 0,1.9782 -0.8478,7.4887 -3.2499,21.4772 -3.2499,25.0096 0,6.4997 4.3802,6.4997 9.6082,0 14.5536,-20.0642 4.8041,5.0867 5.7932,8.0539 -7.4887,24.8683 -25.9986,24.8683 -8.7604,0 -12.9993,-5.3693 -4.2389,-5.3693 -4.2389,-11.3038 z m 87.0388,-86.0498 q 0.989,-2.4021 4.3802,-3.9563 3.5324,-1.6956 8.3365,-1.6956 4.9454,0 7.3474,1.413 -1.4129,11.0211 -4.5215,34.6177 -6.4996,49.3127 -6.4996,54.3994 0,4.9454 4.2389,4.9454 3.6737,0 7.63,-4.5215 3.9563,-4.6628 7.2062,-15.1188 3.9563,3.815 5.5105,8.3365 -5.0866,16.8144 -15.9665,21.7597 -4.9454,2.4021 -9.3256,2.4021 -12.5754,0 -16.8144,-9.043 -7.3474,9.1843 -18.7925,9.1843 -11.445,0 -19.3576,-7.7713 -7.7714,-7.7714 -7.7714,-20.4881 0,-18.5099 10.8799,-29.5311 10.8799,-11.0211 27.5529,-11.0211 0.4239,0 0.8478,0 5.7932,0 10.8799,1.6955 z m -13.8471,44.9324 q -9.0431,0 -14.4123,6.9236 -5.228,6.7822 -6.2171,20.3467 -0.1413,1.2717 -0.1413,2.4021 0,6.9235 3.2498,11.0212 3.3912,4.0976 8.6191,4.0976 8.9018,0 13.4233,-12.5755 l 3.6737,-30.3788 q -4.6628,-1.8369 -8.1952,-1.8369 z m 61.6055,98.9079 q -8.0539,0 -13.8471,-4.9454 -5.7932,-4.8041 -5.7932,-14.1297 0,-11.445 11.5864,-22.3249 -8.1953,-0.7065 -13.1407,-5.3693 -4.9454,-4.6628 -4.9454,-13.1406 0,-3.9563 0.9891,-11.869 0.9891,-7.9126 2.1195,-17.0969 1.1303,-9.1843 2.402,-19.499 4.3802,-1.5542 8.0539,-1.5542 3.6738,0 5.5106,0.2826 1.8369,0.2825 3.5325,2.1194 1.6955,1.8369 1.6955,5.228 l -4.6628,36.0307 q -0.2826,2.2608 -0.2826,3.1086 0,8.3365 7.6301,8.3365 6.9235,0 11.3037,-6.4997 0.4239,-3.2498 2.1195,-18.6512 1.6955,-15.5426 2.8259,-24.1618 1.2717,-2.6846 5.228,-4.2389 4.0976,-1.5542 6.641,-1.5542 4.5215,0 8.1952,1.1303 l -6.641,52.1386 q 16.5318,2.9673 19.7816,22.7488 -0.5652,2.6847 -5.3693,8.4779 -2.8259,-17.6622 -15.5426,-21.4772 l -2.2608,17.6621 q -1.5543,12.7168 -8.0539,20.912 -6.4997,8.3365 -19.0751,8.3365 z m -8.6191,-21.7597 q 0,4.6628 2.2607,6.9235 2.2608,2.2608 5.9345,2.2608 3.815,0 5.7932,-3.1085 1.9781,-3.1086 3.1085,-12.4342 l 1.8369,-15.5427 q -18.5099,9.6082 -18.9338,21.9011 z m 112.0485,-63.4424 q 11.1625,8.1953 11.1625,19.3577 0,11.1625 -8.7605,17.9447 -8.7604,6.7823 -22.0423,6.7823 -8.6191,0 -14.4123,-4.2389 -5.6519,-4.3802 -5.6519,-10.7386 0,-6.3584 4.2389,-10.0321 4.239,-3.815 10.5973,-4.6628 -2.9672,4.2389 -2.9672,8.1953 0,3.815 2.6846,6.217 2.6847,2.4021 6.7823,2.4021 4.0976,0 6.7822,-2.9673 2.6847,-3.1085 2.6847,-7.0648 0,-6.4997 -6.0758,-11.5864 -3.6737,-2.9672 -7.9126,-5.5106 -4.2389,-2.6846 -4.5215,-2.8259 -0.5652,-0.4239 -1.1304,-0.7065 -2.5433,2.9673 -7.3474,8.1952 -4.8041,5.0867 -7.6301,8.1953 -7.9126,8.6191 -8.9017,14.4123 -0.2826,1.1303 -0.2826,4.3802 0,3.1085 1.8369,6.4996 1.9781,3.3912 4.6628,5.0867 2.6846,1.6956 5.228,2.6847 2.6846,1.1303 4.5215,1.5542 1.9781,0.4239 1.9781,0.5652 0,0.9891 -3.1085,2.2608 -5.7932,2.1194 -12.1516,2.1194 -6.217,0 -12.1515,-4.5215 -8.0539,-6.217 -8.0539,-16.5317 0,-6.3584 3.2498,-12.5755 5.7932,-11.0211 27.129,-30.2375 -5.228,-5.228 -5.228,-11.1625 0,-5.9344 4.3802,-10.0321 4.5216,-4.0976 10.5973,-4.0976 5.5106,0 9.6082,4.3802 2.6847,2.9673 2.6847,7.4888 0,4.5215 -2.9673,10.1734 15.1188,6.7822 20.4881,10.5972 z m -30.6615,-15.9665 q 3.3912,-3.5325 3.3912,-5.0867 0,-3.5324 -3.1086,-3.815 -3.5324,0 -3.5324,3.9563 0,2.402 3.2498,4.9454 z"
         id="text2-5-2-7"
         style="font-size:141.297px;line-height:1;font-family:'Lily Script One';-inkscape-font-specification:'Lily Script One';letter-spacing:0px;word-spacing:0px;fill:#ffffff;stroke-width:12.5164"
         aria-label="Wendys&#10;"
         inkscape:export-filename="../wendys-kitchen/public/wendys-kitchen-logo.svg"
         inkscape:export-xdpi="96"
         inkscape:export-ydpi="96" /><g
         id="g60-8"
         transform="translate(-18.729124,-10.215886)"><g
           id="g40-6"
           transform="matrix(0.51035192,0,0,0.51035192,-950.62675,815.44489)"><g
             id="g21-7-8"
             inkscape:label="body"
             transform="matrix(1.2457366,-0.17088371,0.17088371,1.2457366,-936.62571,-268.96561)"><ellipse
               style="opacity:0.164547;mix-blend-mode:normal;fill:#000000;fill-opacity:1;stroke-width:5.75226;filter:url(#filter9-5)"
               id="path9-8"
               cx="-221.41519"
               cy="1145.6805"
               transform="matrix(1.049147,0.16652212,-0.15831822,0.60303542,-39.378719,443.74368)"
               rx="70.724174"
               ry="25.846903" /><path
               id="path21-6-4"
               style="fill:#eec293;stroke-width:5.31496"
               d="m -409.90216,653.04556 c -1.84885,16.4258 -13.29006,28.62245 -25.55467,27.24197 -12.26459,-1.38048 -18.36335,-15.98218 -16.5145,-32.40798 1.84885,-16.42579 13.29007,-28.62244 25.55466,-27.24196 12.2646,1.38047 18.36336,15.98217 16.51451,32.40797 z"
               sodipodi:nodetypes="sssss" /><path
               style="fill:#eec293;fill-opacity:1;stroke-width:5.66929"
               d="m -441.84199,672.61855 0.067,18.84952 23.99857,-3.67062 -6.70583,-20.6427 z"
               id="path22-7-3" /><path
               style="fill:#eec293;fill-opacity:1;stroke-width:5.66929"
               d="m -461.49258,692.04896 c 5.00686,-5.53586 53.03802,-11.88712 65.2201,-1.83087 12.82074,10.58346 -18.84816,82.21488 -18.84816,82.21488 l -34.5349,0.10909 c 2.27604,-14.29214 -8.10146,-28.9547 -15.93788,-48.62565 5.2097,-8.84784 4.56317,-19.89479 4.10084,-31.86745 z"
               id="path23-3-1"
               sodipodi:nodetypes="cscccc" /><path
               style="fill:#eec293;fill-opacity:1;stroke-width:5.66929"
               d="m -414.80314,769.97129 c 11.85366,10.98154 25.92113,20.92502 29.06923,35.98853 l -40.24169,23.80996 -30.34552,-10.68583 7.61606,-48.77467 z"
               id="path24-6-4"
               sodipodi:nodetypes="cccccc" /><path
               style="fill:#eec293;fill-opacity:1;stroke-width:5.66929"
               d="m -424.77113,828.37326 8.61728,83.84372 24.98734,-1.41417 c -3.89042,-34.02109 8.88837,-67.61834 4.54448,-105.99413 z"
               id="path25-5-92"
               sodipodi:nodetypes="ccccc" /><g
               id="g37-6-0"
               transform="translate(-4.2328308,4.2802752)"><path
                 style="fill:#eec293;fill-opacity:1;stroke-width:5.66929"
                 d="m -412.81854,906.6146 4.97828,137.0247 13.72255,-6.0396 c -4.06123,-33.6678 14.78478,-104.34504 5.384,-136.74723 z"
                 id="path26-3-6"
                 sodipodi:nodetypes="ccccc" /><path
                 style="fill:#eec293;fill-opacity:1;stroke-width:5.69864"
                 d="m -407.68289,1036.6557 c -1.13328,12.935 -0.80428,33.5631 1.01082,43.2246 2.24416,9.6992 5.25217,16.435 11.21106,16.8288 4.72404,-2.0919 12.45392,-9.2498 12.97365,-15.3732 l -1.69585,-9.072 -9.96406,-35.207 c -3.89792,-8.1225 -8.56438,-6.2447 -13.53562,-0.4012 z"
                 id="path35-9-8"
                 sodipodi:nodetypes="ccccccc" /><path
                 style="fill:#000000;fill-opacity:1;stroke-width:5.66929"
                 d="m -408.43201,1049.1607 c 1.12491,9.1538 1.88425,19.1082 4.76395,28.2965 5.04882,1.6344 10.12249,2.9322 15.70744,-2.7022 l -4.43623,-32.1621 c 5.46604,13.7523 9.97777,27.5835 11.77642,41.6385 -0.84702,4.3052 -2.12244,10.8648 -7.75763,16.3501 -2.64446,1.3358 -6.27021,1.3415 -10.07211,1.208 -5.87141,-5.8474 -7.03402,-6.6136 -8.92608,-14.9661 -1.47414,-12.0098 -2.32387,-24.3226 -1.05576,-37.6627 z"
                 id="path39-4-9"
                 sodipodi:nodetypes="ccccccccc" /><path
                 style="fill:#000000;fill-opacity:1;stroke-width:5.66929"
                 d="m -407.11942,1062.5142 c 3.19974,-3.7235 11.62372,-5.179 18.06188,-4.0738 l 1.49746,5.8191 c -6.60113,-1.4497 -14.99336,0.066 -18.65102,4.7185 z"
                 id="path40-8-26"
                 sodipodi:nodetypes="ccccc" /></g><g
               id="g36-12-6"
               transform="rotate(-8.9656754,-381.71131,900.95516)"><path
                 style="fill:#eec293;fill-opacity:1;stroke-width:5.66929"
                 d="m -450.31762,814.92976 -14.89818,78.10894 -46.37538,130.6403 16.91469,1.6369 c 9.81769,-32.65704 24.84416,-45.95356 35.81749,-70.46807 0,0 20.0342,-67.76843 20.0342,-71.17373 0,-3.4053 19.58049,-52.7821 19.58049,-52.7821 z"
                 id="path27-9-4"
                 sodipodi:nodetypes="cccccscc" /><path
                 style="fill:#eec293;fill-opacity:1;stroke-width:4.3211"
                 d="m -510.37847,1020.6917 -21.10449,24.9834 c -5.22326,2.7487 -6.12313,3.8022 -10.84615,5.3679 4.70449,3.2987 9.65986,6.2307 17.35398,5.1592 6.33095,-2.1194 10.39918,-9.2297 17.56959,-11.2945 3.56867,0.9211 7.24097,1.4312 11.2509,0.6022 1.71641,-3.9578 4.26438,-7.2852 3.21888,-13.3371 l -0.50476,-2.3246 -1.56487,-7.207 z"
                 id="path36-3-9"
                 sodipodi:nodetypes="cccccccccc" /></g></g><path
             style="fill:#eec293;fill-opacity:1;stroke-width:7.12858"
             d="m -1392.1006,670.93982 c -4.259,2.74359 -9.1171,5.54804 -10.1122,11.42447 l 4.9324,67.92862 c -7.5381,10.67316 -9.5028,28.89724 -14.0102,43.67629 l -14.5436,9.24958 4.5643,2.15936 15.5369,8.4174 13.3264,-15.03463 c 4.2352,-17.69579 14.6327,-27.5211 13.389,-53.57297 l -7.3062,-64.61903 z"
             id="path31-9-5"
             sodipodi:nodetypes="ccccccccccc" /><path
             style="fill:#eec293;fill-opacity:1;stroke-width:7.12858"
             d="m -1323.2263,685.56617 12.0178,-26.19799 60.0066,70.56578 c 1.6921,13.13228 -8.3226,15.07606 -17.1062,5.77769 z"
             id="path28-0-0"
             sodipodi:nodetypes="ccccc" /><path
             style="fill:#dc0000;fill-opacity:1;stroke-width:7.12858"
             d="m -1230.2327,913.39409 c -56.6203,27.48388 -111.0381,43.27447 -158.8531,24.01219 l 26.2723,-171.21495 -28.9987,-45.1008 -12.5015,-14.70125 c -2.9913,-8.67905 -2.8404,-18.15795 -2.1774,-27.7672 11.6448,-6.29331 22.7399,-14.49586 35.5431,-16.86223 1.3661,9.40776 1.9508,20.23836 10.7307,25.44853 12.062,-7.3173 19.151,-19.10786 25.8875,-32.0005 8.0933,-1.26974 15.7269,1.02589 23.4659,2.50321 10.5249,4.73896 17.518,11.79358 24.8195,18.64605 -12.7669,1.74547 -18.2284,8.85079 -20.2595,18.6727 -0.5159,3.68307 -0.6991,5.74863 3.2773,8.88126 l -6.1221,41.97744 45.2543,55.05075 55.8712,90.45078 z"
             id="path32-8-4"
             sodipodi:nodetypes="ccccccccccccccccc" /><path
             id="path20-8-87"
             style="fill:#ffffff;fill-opacity:1;stroke-width:1.72113"
             d="m -1380.9651,691.56644 c -2.7392,0.75994 7.7012,-25.46607 8.1321,-29.5055 -1.3265,-0.0307 -6.54,1.69475 -8.2798,2.79048 -2.3216,7.62233 -12.3902,34.12365 -11.6648,52.4726 1.0274,25.99003 26.6443,33.51478 24.8158,57.92719 -4.1741,55.72724 -18.8748,117.1224 -18.8748,117.1224 40.3161,23.65709 79.9066,7.91983 133.2972,-11.98412 -13.7085,-29.70482 -11.9218,-77.04293 -43.6779,-107.23277 -26.3368,-37.1106 -26.9162,-72.15468 -22.0369,-116.95319 -3.5765,-0.58492 -5.1139,-1.2454 -9.6537,-1.78017 -2.6302,10.23546 -10.9539,35.6986 -15.4465,36.01618"
             sodipodi:nodetypes="cccsscccccc" /><path
             style="fill:#eec293;fill-opacity:1;stroke-width:7.12858"
             d="m -1272.733,731.53818 c -18.5384,14.52254 -35.8347,31.33399 -55.6263,43.54723 -6.7242,10.04303 -3.3195,13.74883 7.937,12.5419 23.1482,-15.51788 45.0482,-24.83717 68.488,-49.41013 -3.2397,-5.15882 -5.0059,-4.27952 -20.7987,-6.679 z"
             id="path29-5-1"
             sodipodi:nodetypes="ccccc" /><path
             style="fill:#000000;stroke-width:0.539228"
             d="m -1454.1085,847.90073 c -11.8533,-0.6502 -19.5146,-2.73631 -26.2512,-7.14795 -2.7289,-1.78706 -7.1146,-6.09452 -9.2225,-9.05774 -1.8214,-2.56074 -4.207,-7.04232 -3.9078,-7.34149 0.095,-0.0954 1.2834,0.30337 2.6402,0.88612 7.7629,3.33421 17.5771,5.92638 27.4945,7.26189 5.4985,0.74041 17.4037,1.03537 23.0156,0.57018 11.5002,-0.95325 22.5206,-3.48552 32.7738,-7.53075 1.7868,-0.70494 3.3133,-1.2171 3.3922,-1.13815 0.2338,0.23381 -1.6103,3.78193 -3.2573,6.26712 -3.878,5.85122 -9.9351,10.78554 -16.6543,13.56693 -6.6808,2.76554 -18.9978,4.26864 -30.0232,3.66384 z m -0.4259,-17.0299 c -4.0123,-0.23899 -8.9494,-0.78701 -12.6333,-1.40227 -4.393,-0.73373 -11.3466,-2.31259 -11.7281,-2.66292 -0.552,-0.50688 7.964,-2.97287 13.1476,-3.80717 6.0881,-0.97988 8.8103,-1.16538 17.0337,-1.16058 9.1186,0.005 13.6404,0.39779 20.0146,1.73729 3.2414,0.68115 8.935,2.37578 9.7494,2.9018 0.2576,0.1664 -0.36,0.44594 -1.9079,0.86363 -10.1177,2.73005 -23.5207,4.13507 -33.676,3.53022 z m -33.0738,-6.87673 c -3.1607,-1.25656 -10.2688,-4.78667 -10.5707,-5.24976 -0.4655,-0.7141 -0.2047,-2.93076 0.5147,-4.37438 5.4003,-10.83702 41.9844,-16.76334 72.0871,-11.67756 14.1339,2.38788 24.8223,7.55654 26.249,12.69336 0.5201,1.87247 0.3739,2.54003 -0.8456,3.86313 -1.4267,1.54775 -4.2499,2.94883 -9.2718,4.60135 l -3.791,1.24755 -2.3162,-1.16457 c -6.9672,-3.50304 -17.5249,-5.53857 -30.3231,-5.84631 -14.8774,-0.35778 -27.8589,1.75276 -36.0201,5.85618 -1.2611,0.63403 -2.4555,1.14613 -2.6541,1.13804 -0.1987,-0.008 -1.5748,-0.49733 -3.0582,-1.08703 z m 89.9713,-10.87844 c -0.5608,-1.35386 -3.5328,-4.21192 -5.8649,-5.63993 -1.1307,-0.69237 -2.0569,-1.34605 -2.0582,-1.45263 -0.01,-0.26568 12.2295,-6.30083 17.4571,-8.61256 14.025,-6.20212 25.2439,-9.76436 31.1206,-9.88152 2.2568,-0.045 2.5319,0.01 3.2046,0.63904 0.5478,0.51238 0.7358,0.97047 0.7358,1.79269 0,1.23864 -0.897,3.59736 -1.875,4.93064 -0.5985,0.81604 -0.8127,0.89669 -2.8637,1.07836 -11.6292,1.03013 -28.9981,8.58533 -37.1781,16.17194 -1.1162,1.03528 -2.0908,1.8823 -2.1657,1.8823 -0.075,0 -0.3055,-0.40874 -0.5125,-0.90833 z"
             id="path68-7" /><path
             style="fill:#eec293;fill-opacity:1;stroke-width:7.12858"
             d="m -1327.2917,775.46085 c -5.7418,-0.46241 -11.618,0.11706 -17.6259,1.71811 l -11.3541,8.87553 c -0.5505,5.09424 -3.355,10.45274 0.6819,15.00917 l 9.3779,6.44501 15.7936,-7.77931 11.558,-14.47343 z"
             id="path30-6-2"
             sodipodi:nodetypes="cccccccc" /><path
             style="fill:#8e6131;fill-opacity:1;stroke-width:7.12858"
             d="m -1365.0382,586.37182 c 0,0 -6.8936,12.09696 -2.3046,12.84502 13.494,2.19973 28.8314,10.56787 25.5549,11.98478 3.8059,-6.81414 -11.654,-15.50915 -18.9864,-16.22774 5.4048,0.66726 9.7222,1.73602 13.6689,3.97183 10.3903,7.57357 8.2096,14.25113 10.2132,22.15978 l -6.9906,13.51597 -3.9602,14.448 c 0,0 2.3662,6.64756 4.0227,11.02596 1.6565,4.37851 7.7303,20.4329 7.7303,20.4329 1.4436,3.24429 1.8447,6.40425 0.7258,9.44129 -1.2747,5.53573 -5.3756,8.51544 -8.451,12.42237 6.9681,1.61413 12.9618,-4.56726 19.2937,-8.04357 5.9389,-4.67157 3.7129,-15.51326 3.6693,-23.60873 -0.9273,-3.81889 1.0736,-6.08027 3.6294,-8.04651 7.1927,-0.0932 11.1658,5.73597 16.0257,9.93388 -1.6664,-3.94835 -2.23,-7.93373 -6.7167,-11.78738 l -14.3305,-6.03632 c -3.4205,-1.50258 -6.4864,-3.52129 -6.911,-9.38308 l 1.4881,-16.55984 c 0.5862,-11.42781 4.5653,-20.8018 -1.1793,-36.062 -3.872,-7.32664 -10.4757,-13.76598 -21.2623,-18.84641 l -10.9448,0.90207 z"
             id="path33-3-7"
             sodipodi:nodetypes="csccccccsccccccccccccccc" /><path
             style="fill:#8e6131;fill-opacity:1;stroke-width:7.12858"
             d="m -1368.8838,597.42405 c -4.1364,-1.44001 -8.441,-2.1496 -13.412,0.0346 -5.8421,3.85572 -4.9476,7.21772 -6.7189,11.92005 1.0697,15.77248 3.4058,33.51469 17.5249,42.29379 1.8755,1.16612 0.9481,5.00524 1.0112,6.11823 l 0.8386,3.90277 c -7.4555,-0.0206 -15.0841,5.0863 -21.3673,8.69712 2.1557,-7.66019 5.7483,-13.76383 1.6476,-28.20072 -10.7726,-24.22269 -4.9675,-33.79081 -2.431,-46.90049 5.0481,-9.87904 12.9984,-15.18225 19.4162,-19.48916 l 11.0772,0.22559 z"
             id="path34-8-2"
             sodipodi:nodetypes="cccscccccccc" /><path
             style="fill:#000000;fill-opacity:1;stroke-width:7.12858"
             d="m -1348.1645,1109.0452 -15.2705,20.9439 c -6.2904,7.369 -15.0995,13.746 -22.2251,17.017 l -18.6914,10.1903 c -2.7447,4.5195 -1.3664,5.6957 0.868,8.6804 11.4636,-0.48 20.0196,0.5073 30.0262,-3.6977 3.373,-7.649 6.821,-11.6477 13.0984,-20.6459 2.3603,-1.6237 4.4923,-4.656 5.9487,-3.5789 5.255,7.1686 1.753,11.7559 2.6731,19.1842 l 6.9877,-1.4567 c -1.8805,-7.0266 0.2613,-17.7406 4.4206,-30.3037 -1.4205,-6.2398 -4.0845,-13.5821 -7.8357,-16.3329 z"
             id="path37-5-2"
             sodipodi:nodetypes="cccccccccccc" /><path
             style="fill:#000000;fill-opacity:1;stroke-width:7.12858"
             d="m -1369.1014,1136.9164 -10.0565,-6.2793 2.1704,-5.5295 14.3201,6.072 z"
             id="path38-6-6"
             sodipodi:nodetypes="ccccc" /><circle
             style="opacity:1;fill:#ffffff;fill-opacity:1;stroke-width:4.50266"
             id="path41-106"
             cx="-1249.3895"
             cy="846.77271"
             r="1.4343042" /><circle
             style="fill:#ffffff;fill-opacity:1;stroke-width:4.50266"
             id="path41-8-1"
             cx="-1233.7177"
             cy="860.19336"
             r="1.4343042" /><circle
             style="fill:#ffffff;fill-opacity:1;stroke-width:4.50266"
             id="path41-3-5"
             cx="-1246.0366"
             cy="872.51227"
             r="1.4343042" /><circle
             style="fill:#ffffff;fill-opacity:1;stroke-width:4.50266"
             id="path41-4-9"
             cx="-1221.3988"
             cy="872.51227"
             r="1.4343042" /><circle
             style="fill:#ffffff;fill-opacity:1;stroke-width:4.50266"
             id="path41-7-4"
             cx="-1231.2539"
             cy="882.36749"
             r="1.4343042" /><circle
             style="fill:#ffffff;fill-opacity:1;stroke-width:4.50266"
             id="path41-1-9"
             cx="-1243.5729"
             cy="894.68646"
             r="1.4343042" /><circle
             style="fill:#ffffff;fill-opacity:1;stroke-width:4.50266"
             id="path41-41-0"
             cx="-1260.8193"
             cy="884.8313"
             r="1.4343042" /><circle
             style="fill:#ffffff;fill-opacity:1;stroke-width:4.50266"
             id="path41-5-9"
             cx="-1223.8624"
             cy="904.54169"
             r="1.4343042" /><circle
             style="fill:#ffffff;fill-opacity:1;stroke-width:4.50266"
             id="path41-18-1"
             cx="-1211.5436"
             cy="894.68646"
             r="1.4343042" /><circle
             style="fill:#ffffff;fill-opacity:1;stroke-width:4.50266"
             id="path41-33-7"
             cx="-1263.2832"
             cy="830.62781"
             r="1.4343042" /><circle
             style="fill:#ffffff;fill-opacity:1;stroke-width:4.50266"
             id="path41-88-7"
             cx="-1260.8193"
             cy="810.91742"
             r="1.4343042" /><circle
             style="fill:#ffffff;fill-opacity:1;stroke-width:4.50266"
             id="path41-6-1"
             cx="-1258.3557"
             cy="860.19336"
             r="1.4343042" /><circle
             style="fill:#ffffff;fill-opacity:1;stroke-width:4.50266"
             id="path41-0-1"
             cx="-1260.8193"
             cy="902.07788"
             r="1.4343042" /><circle
             style="fill:#ffffff;fill-opacity:1;stroke-width:4.50266"
             id="path41-05-5"
             cx="-1243.5729"
             cy="914.39685"
             r="1.4343042" /><circle
             style="fill:#ffffff;fill-opacity:1;stroke-width:4.50266"
             id="path41-2-9"
             cx="-1268.2108"
             cy="924.25208"
             r="1.4343042" /><circle
             style="fill:#ffffff;fill-opacity:1;stroke-width:4.50266"
             id="path41-54-7"
             cx="-1278.066"
             cy="894.68646"
             r="1.4343042" /><circle
             style="fill:#ffffff;fill-opacity:1;stroke-width:4.50266"
             id="path41-9-7"
             cx="-1285.4574"
             cy="911.93304"
             r="1.4343042" /><circle
             style="fill:#ffffff;fill-opacity:1;stroke-width:4.50266"
             id="path41-21-6"
             cx="-1295.3126"
             cy="931.64343"
             r="1.4343042" /><circle
             style="fill:#ffffff;fill-opacity:1;stroke-width:4.50266"
             id="path41-08-7"
             cx="-1307.6316"
             cy="914.39685"
             r="1.4343042" /><circle
             style="fill:#ffffff;fill-opacity:1;stroke-width:4.50266"
             id="path41-62-3"
             cx="-1300.2401"
             cy="897.15027"
             r="1.4343042" /><circle
             style="fill:#ffffff;fill-opacity:1;stroke-width:4.50266"
             id="path41-84-6"
             cx="-1332.2695"
             cy="914.39685"
             r="1.4343042" /><circle
             style="fill:#ffffff;fill-opacity:1;stroke-width:4.50266"
             id="path41-629-5"
             cx="-1319.9504"
             cy="929.17957"
             r="1.4343042" /><circle
             style="fill:#ffffff;fill-opacity:1;stroke-width:4.50266"
             id="path41-31-6"
             cx="-1339.6609"
             cy="941.4986"
             r="1.4343042" /><circle
             style="fill:#ffffff;fill-opacity:1;stroke-width:4.50266"
             id="path41-03-39"
             cx="-1364.2987"
             cy="939.03479"
             r="1.4343042" /><circle
             style="fill:#ffffff;fill-opacity:1;stroke-width:4.50266"
             id="path41-93-4"
             cx="-1351.9799"
             cy="924.25208"
             r="1.4343042" /><circle
             style="fill:#ffffff;fill-opacity:1;stroke-width:4.50266"
             id="path41-66-8"
             cx="-1359.3712"
             cy="907.00543"
             r="1.4343042" /><circle
             style="fill:#ffffff;fill-opacity:1;stroke-width:4.50266"
             id="path41-626-1"
             cx="-1374.1539"
             cy="919.32446"
             r="1.4343042" /><circle
             style="fill:#ffffff;fill-opacity:1;stroke-width:4.50266"
             id="path41-87-2"
             cx="-1386.4729"
             cy="934.10718"
             r="1.4343042" /><circle
             style="fill:#ffffff;fill-opacity:1;stroke-width:4.50266"
             id="path41-96-9"
             cx="-1379.0815"
             cy="904.54169"
             r="1.4343042" /><circle
             style="fill:#ffffff;fill-opacity:1;stroke-width:4.50266"
             id="path41-13-3"
             cx="-1273.1384"
             cy="805.98981"
             r="1.4343042" /><circle
             style="fill:#ffffff;fill-opacity:1;stroke-width:4.50266"
             id="path41-91-9"
             cx="-1273.1384"
             cy="793.6709"
             r="1.4343042" /><circle
             style="fill:#ffffff;fill-opacity:1;stroke-width:4.50266"
             id="path41-75-0"
             cx="-1290.3849"
             cy="778.88812"
             r="1.4343042" /><circle
             style="fill:#ffffff;fill-opacity:1;stroke-width:4.50266"
             id="path41-80-8"
             cx="-1248.5005"
             cy="833.09161"
             r="1.4343042" /><circle
             style="fill:#ffffff;fill-opacity:1;stroke-width:4.50266"
             id="path41-10-8"
             cx="-1307.6316"
             cy="729.61224"
             r="1.4343042" /><circle
             style="fill:#ffffff;fill-opacity:1;stroke-width:4.50266"
             id="path41-055-5"
             cx="-1317.4868"
             cy="712.3656"
             r="1.4343042" /><circle
             style="fill:#ffffff;fill-opacity:1;stroke-width:4.50266"
             id="path41-83-0"
             cx="-1305.1677"
             cy="709.90186"
             r="1.4343042" /><circle
             style="fill:#ffffff;fill-opacity:1;stroke-width:4.50266"
             id="path41-919-9"
             cx="-1310.0953"
             cy="692.65533"
             r="1.4343042" /><circle
             style="fill:#ffffff;fill-opacity:1;stroke-width:4.50266"
             id="path41-49-63"
             cx="-1319.9504"
             cy="677.87256"
             r="1.4343042" /><circle
             style="fill:#ffffff;fill-opacity:1;stroke-width:4.50266"
             id="path41-50-85"
             cx="-1297.7762"
             cy="675.40869"
             r="1.4343042" /><circle
             style="fill:#ffffff;fill-opacity:1;stroke-width:4.50266"
             id="path41-51-6"
             cx="-1312.5591"
             cy="665.55353"
             r="1.4343042" /><circle
             style="fill:#ffffff;fill-opacity:1;stroke-width:4.50266"
             id="path41-46-1"
             cx="-1374.1539"
             cy="685.26392"
             r="1.4343042" /><circle
             style="fill:#ffffff;fill-opacity:1;stroke-width:4.50266"
             id="path41-64-1"
             cx="-1342.1246"
             cy="677.87256"
             r="1.4343042" /><circle
             style="fill:#ffffff;fill-opacity:1;stroke-width:4.50266"
             id="path41-92-5"
             cx="-1351.9799"
             cy="687.72766"
             r="1.4343042" /><circle
             style="fill:#ffffff;fill-opacity:1;stroke-width:4.50266"
             id="path41-838-9"
             cx="-1393.8643"
             cy="700.04669"
             r="1.4343042" /><circle
             style="fill:#ffffff;fill-opacity:1;stroke-width:4.50266"
             id="path41-04-8"
             cx="-1403.7195"
             cy="695.11908"
             r="1.4343042" /><circle
             style="fill:#ffffff;fill-opacity:1;stroke-width:4.50266"
             id="path41-06-4"
             cx="-1401.2556"
             cy="680.3363"
             r="1.4343042" /><circle
             style="fill:#ffffff;fill-opacity:1;stroke-width:4.50266"
             id="path41-333-8"
             cx="-1386.4729"
             cy="670.48114"
             r="1.4343042" /><path
             style="fill:#000000;stroke-width:0.085897"
             d="m -1441.4172,788.91658 c -1.2206,-0.88418 -3.21,-2.87763 -4.2523,-4.26095 -2.6244,-3.48267 -3.7558,-7.43843 -3.3298,-11.64075 0.2893,-2.8535 0.8592,-4.68037 2.4619,-7.89068 2.0629,-4.13227 2.6786,-6.8864 2.5217,-11.2805 -0.1334,-3.73745 -0.6093,-5.79301 -2.4088,-10.40276 -0.3054,-0.78222 -0.3049,-0.79834 0.04,-1.26232 0.2521,-0.33912 0.5227,-0.48466 0.9719,-0.5227 0.5915,-0.0501 0.7125,0.0381 2.4271,1.76725 4.1349,4.17013 6.0898,8.50944 6.0898,13.51748 0,3.18352 -0.608,5.42558 -2.499,9.21456 -1.9904,3.98838 -2.703,6.2089 -3.0618,9.54084 -0.4222,3.92215 0.6195,8.25439 2.7218,11.31819 0.6175,0.90003 0.6308,1.59602 0.039,2.06133 -0.5954,0.46833 -0.8939,0.44077 -1.7218,-0.15899 z"
             id="path73-1" /><path
             style="fill:#000000;stroke-width:0.1669"
             d="m -1462.9188,785.87605 c -6.125,-4.86795 -10.7165,-11.51463 -12.7077,-18.39657 -0.8929,-3.08618 -1.2182,-9.87283 -0.6597,-13.76708 0.5421,-3.7801 2.2292,-8.64709 4.5771,-13.2038 3.5687,-6.92624 4.9264,-12.51351 4.9264,-20.27342 0,-7.25071 -1.4854,-14.42762 -4.271,-20.63615 -1.1447,-2.55137 -1.1576,-2.72579 -0.2838,-3.83672 0.4991,-0.63444 0.9764,-0.86168 1.81,-0.86168 0.9791,0 1.534,0.38712 4.1024,2.86153 8.9572,8.62966 13.4436,19.44963 12.3645,29.81972 -0.5539,5.32341 -1.5227,8.30117 -5.0608,15.5558 -3.2246,6.61191 -4.6725,10.86222 -5.5582,16.31532 -0.4026,2.47816 -0.2112,9.15401 0.3385,11.80934 0.9424,4.55265 2.8511,9.22278 4.8711,11.9184 1.1306,1.50875 1.1237,3.02103 -0.018,3.91886 -0.474,0.37279 -1.1266,0.6778 -1.4503,0.6778 -0.3237,0 -1.6651,-0.85561 -2.981,-1.90135 z"
             id="path72-0" /></g></g></g></g></svg>
